<?xml version="1.0" encoding="UTF-8"?>
<svg id="Layer_1" data-name="Layer 1" xmlns="http://www.w3.org/2000/svg" viewBox="0 0 1080 1350">
  <defs>
    <style>
      .cls-1 {
        fill-rule: evenodd;
      }

      .cls-1, .cls-2 {
        fill: #fbb040;
      }

      .cls-3 {
        letter-spacing: 0em;
      }

      .cls-2 {
        font-family: CarterOne, 'Carter One';
        font-size: 90.2px;
        stroke: #fbb042;
        stroke-miterlimit: 10;
      }

      .cls-4 {
        letter-spacing: 0em;
      }

      .cls-5 {
        letter-spacing: 0em;
      }

      .cls-6 {
        fill: #fbb042;
      }
    </style>
  </defs>
  <g>
    <g>
      <path class="cls-1" d="M1010.41,574.68c-13.91,95.79-165.51,94.58-244.16,63.41l-2.54,9.39c65.56,29.43,166.13,28.49,218.45-4.67-29.3,85.81-156.59,56.78-221.89,17.29l-2.19,8.09c59.81,37.5,138.59,53.02,194.17,31.97-38.61,72.95-145.17,27.52-198.09-17.48l-2.09,7.68c42.53,41.39,95.72,66.33,144.16,60.89-44.05,48.93-111.31,2.94-149.06-42.85l-2.56,9.44c32.45,41.11,74.99,69.85,116.96,72.97-44.42,34.32-94.52-7.8-122.62-52.07l-3.18,11.67c20.64,30.59,46.42,54.37,74.72,65.58-34.12,13.31-62.48-6.02-82.74-36.01l-.07.28h-36.68l-11.27-27.39-11.05-26.86-10.6-25.78-31.05,80.03h-35.88l-51.13-187.38h39.9l33.99,126.34,39.62-99.83c1.35-3.22,4.02-4.82,6.97-4.82s5.89,1.61,6.95,4.82l37.48,99.83,33.99-126.34h38.47c86.13-4.84,210.38-33.41,254.67-98.84,2,107.57-167.94,141.37-260.11,123.13l-2.47,9.05c70.95,19.31,193.25-4.84,240.94-51.54Z"/>
      <g>
        <path class="cls-6" d="M1005.39,576c4.22-3.83,2.42-2.75,3-3.38-6.92,6.49-2.75,3.3-3,3.38Z"/>
        <polygon class="cls-6" points="920.84 618.3 922.43 617.69 915.67 619.74 908.86 621.64 914.87 620.04 920.84 618.3"/>
        <path class="cls-6" d="M832.39,631.34c1.06.06,2.36.09,3.86.1.75,0,1.55,0,2.39,0,.84-.03,1.73-.07,2.65-.1,1.84-.09,3.84-.2,5.94-.31,2.1-.18,4.29-.36,6.55-.55,9.03-.84,18.93-2.22,26.84-3.35.88-.07,1.75-.18,2.62-.27l7-1.8c-9.53,1.81-20.56,3.54-30.94,4.63-10.38,1.1-20.09,1.66-26.93,1.65Z"/>
        <path class="cls-6" d="M785.13,626.56c1.42.37-1.12.02-1.38-.02.13.02.34.05,2.09.31,1.79.25,4.9.81,10.19,1.37-1.06-.17-1.36-.22-1.98-.32-.95-.13-2.08-.24-3.52-.46-1.44-.24-3.19-.53-5.4-.89Z"/>
        <path class="cls-6" d="M794.05,627.91c9.28,1.14-6.04-.99,0,0h0Z"/>
        <path class="cls-6" d="M781.09,621.67l-5.67-.8-1.16-.15s-.1-.02-.13-.01l-.02.09-.03.17-.06.32c.04-.05.07-.12.11-.21.02-.04.04-.08.06-.13l.03-.07s.1.02.15.03c.47.11,1,.24,1.46.35,2.58.47,4.33.8,2.25.52,3.21.52,5.47.75,6.92.93,1.45.14,2.11.18,2.13.14s-.59-.17-1.66-.36c-1.07-.2-2.59-.48-4.41-.81Z"/>
        <path class="cls-6" d="M793.02,622.65c-2.17-.18-4.34-.4-6.5-.65,1.13.2,2.84.47,6.5.65Z"/>
        <path class="cls-6" d="M774.47,620.36l5.17.77c2.29.31,4.58.63,6.88.87-1.8-.34-1.95-.6-6.31-.81.58-.01.18-.08-1.09-.25-.93-.12-2.5-.32-4.64-.59Z"/>
        <path class="cls-6" d="M772.88,623.4c-.1.3-.2.6-.31.91,0,.04-.04.09-.03.11l.11.03.21.07c.14.05.29.09.42.13.14.04.28.09.41.13.08.02.15.05.23.07.17.05.33.09.48.13.62.18,1.13.32,1.51.43.74.22.9.3.12.16-.53-.11-1.72-.35-3.79-.77.81.19,1.57.37,2.26.54,1.23.29,2.35.58,3.4.76,2.08.39,3.76.7,5.05.94,2.59.42,3.64.48,3.22.36-.42-.14-2.3-.45-5.49-1.17-1.59-.36-3.55-.69-5.76-1.29-.58-.14-1.21-.3-1.88-.47l-.33-.08s-.06,0-.08-.02l.02-.08.04-.17c.06-.23.12-.46.18-.71Z"/>
        <path class="cls-6" d="M827.82,632.13c3.11.11,6.23.02,9.35.04,2.69-.14,5.38-.41,8.06-.62-4.03.43-17.99.47-17.41.58Z"/>
        <path class="cls-6" d="M859.42,623.31c.38-.12-.68-.11-1.96-.09-1.28,0-2.77.02-3.25-.03-3.08.34-6.17.6-9.26.85,4.78-.16,13.81-.84,14.46-.73Z"/>
        <path class="cls-6" d="M854.21,623.19c4.61-.46,9.21-1.07,13.79-1.7-12.33,1.42-14.59,1.56-13.79,1.7Z"/>
        <path class="cls-6" d="M795.33,622.09c-3.79-.27-7.58-.61-11.36-1.05-1.89-.23-3.78-.45-5.67-.73l-4.22-.6,5.31.78c2.25.32,4.51.59,6.76.84,4.51.51,9.04.85,13.56,1.14l-4.38-.38Z"/>
        <path class="cls-6" d="M911.76,614.1c-2.53.75-5.05,1.53-7.6,2.22,4.54-1.22,9.04-2.59,13.51-4l-5.92,1.78Z"/>
        <path class="cls-6" d="M945.36,603.12c-5.34,2.46,7.66-2.54,1.96-.06,8.93-3.66,16.24-7.55,22.65-11.3-6.86,3.89-14.45,7.57-24.61,11.36Z"/>
        <path class="cls-6" d="M980.54,585.14c-3.3,2.15-6.73,4.39-10.57,6.62,3.66-2.05,7.14-4.28,10.57-6.62Z"/>
        <path class="cls-6" d="M891.39,617.86c1.07-.14,3.16-.22,10.8-1.82-1.81.28-3.63.5-5.44.75-1.63.35-3.49.7-5.37,1.07Z"/>
        <path class="cls-6" d="M896.56,616.81l.19-.03c2.9-.61,5.36-1.14,7.3-1.61,1.94-.44,3.37-.78,4.23-1-.73.19-1.98.5-3.89.92-1.9.45-4.46,1.02-7.83,1.72Z"/>
        <path class="cls-6" d="M890.04,618.12c.5-.1.86-.17,1.35-.26-.52.06-.84.11-1.35.26Z"/>
        <path class="cls-6" d="M831.65,623.71c8.16-.36,25.06-1.76,8.66-1.15-2.91.27-2.02.35-1.92.48.09.11-.61.35-6.74.67Z"/>
        <path class="cls-6" d="M883.26,618.78c-4.85.8-9.72,1.45-14.59,2.06.3.07,2.96-.1-1.03.53,5.22-.77,10.44-1.59,15.62-2.58Z"/>
        <path class="cls-6" d="M890.34,617.38c-2.36.47-4.71.97-7.08,1.4,1.8-.27,3.59-.61,5.39-.92l1.69-.48Z"/>
        <path class="cls-6" d="M958.02,597.02c5.71-2.9,11.95-6.11,18.71-10.26-7.3,4.35-15.15,8.29-22.73,11.69-.5.31-1.57.88-1.48.91.05.02.4-.08,1.24-.44.84-.36,2.19-.96,4.26-1.9Z"/>
        <path class="cls-6" d="M928.68,608.38c.42-.15.95-.33,1.34-.47-.84.24-1.51.45-1.34.47Z"/>
        <path class="cls-6" d="M1028.35,529.44c-.18.4-.34.75-.53,1.16-.01.1-.02.17-.04.3l.57-1.46Z"/>
        <path class="cls-6" d="M952.67,598.96c-5.87,2.45-9.37,3.91-12.72,5.31,4.45-1.68,9.1-3.63,14.05-5.82.45-.28.53-.34-1.33.51Z"/>
        <path class="cls-6" d="M997.99,571.94c-2.58,2.14-5.61,4.43-8.83,6.75,2.71-1.82,8.06-5.83,8.83-6.75Z"/>
        <path class="cls-6" d="M932.1,607.35c-.3.11-.57.2-.9.32,2.01-.57,1.75-.53.9-.32Z"/>
        <path class="cls-6" d="M932.1,607.35c3.07-1.13,5.47-2.06,7.85-3.07-3.61,1.39-6.99,2.61-9.93,3.64.76-.22,1.52-.42,2.07-.56Z"/>
        <path class="cls-6" d="M1031.14,505.98c.14.45-.03,4.97-1.32,10.89-.26,1.5-.75,3.05-1.16,4.69-.43,1.64-1.04,3.29-1.59,5-.65,1.67-1.29,3.39-2.03,5.05-.79,1.65-1.5,3.33-2.39,4.88-1.47,3.2-2.47,5.01-2.75,5.92-.31.9-.02.82.7.02,1.45-1.57,4.58-6.11,7.24-11.85,0-.24-.04-.38.56-2.19.33-.9.69-2.26,1.3-4.25.32-.99.61-2.18.95-3.55.17-.69.36-1.42.55-2.21.16-.8.33-1.65.51-2.55-.16.63-.4,1.59-.7,2.78-.34,1.17-.75,2.57-1.19,4.06-.51,1.47-1.06,3.04-1.6,4.59-.63,1.52-1.23,3.04-1.82,4.41-.64,1.34-1.23,2.56-1.7,3.55-.49.98-.93,1.69-1.16,2.08-.5.77-.25.21.99-2.62.48-1.11.93-2.14,1.34-3.09.4-.96.71-1.87,1.04-2.7.66-1.65,1.11-3.07,1.5-4.28.84-2.4,1.22-4.03,1.64-5.33.42-1.3.66-2.32,1-3.58.16-.63.34-1.32.55-2.14.16-.83.34-1.79.56-2.95-.44,1.96-.46,1.41-.26-.45.12-.94.22-2.17.32-3.66.06-.83.13-1.72.19-2.64.05-.89.04-1.79.07-2.69.02-.88.04-1.77.05-2.65,0-.87-.04-1.71-.05-2.5-.03-.77-.05-1.51-.07-2.2,0-.17-.01-.33-.02-.49v-.12s-.06.07-.08.1l-.16.24c-.22.32-.42.62-.62.91-1.56,2.3-2.29,3.56-1.81,3.18l1.19-1.69.6-.86.3-.43s.06-.11.06-.07v.12s0,.24,0,.24l.05,3.9c-.07,2.64-.17,5.39-.48,8.2-.07.15.01-1.3.03-2.12.02-.84-.03-1.07-.31,1.03Z"/>
        <path class="cls-6" d="M1013.64,554.92c-1.23,1.61-2.55,3.16-3.85,4.71,1.14-1.31,2.19-2.53,3.23-3.72,1-1.24,1.98-2.45,3-3.72.97-1.31,2.01-2.66,3.09-4.19,1.03-1.56,2.25-3.2,3.42-5.19,2.46-4.48,3.61-7.35,4.3-9.11.71-1.75.89-2.44.95-2.79-1.89,4.65-4.14,9.15-6.71,13.45-2.61,4.28-5.53,8.36-8.69,12.22.44-.54.86-1.09,1.26-1.66Z"/>
        <path class="cls-6" d="M989.7,577.95c1.77-1.58,5.46-4.66,7.69-6.84,2.24-2.16,3.18-3.2-.31-.46-3.33,2.89-5.68,4.73-7.38,6.05-1.68,1.35-2.75,2.13-3.61,2.81-1.73,1.37-2.73,2.24-7.13,5.17,6-3.85,8.41-5.74,9.17-6.21.74-.5-.27.27-1.48,1.19-1.21.92-2.62,2-2.67,2.09-.03.05.31-.11,1.16-.68.85-.58,2.27-1.49,4.36-3.02-4.49,3.4-8.7,6.22-12.77,8.72,4.44-2.62,8.58-5.37,12.43-8.07-.21.15-.36.26-.54.37l-.11.08.02-.02c-1.04.67-1.39.88-.24.1.08-.06.36-.26.48-.35.12-.17.51-.53.94-.91,6.67-4.95,1.11-.7-.94.91-.06.07-.24.22-.25.25.02-.01.06-.04.09-.06,3.83-2.89,7.56-5.9,11.11-9.14,3.53-3.26,6.92-6.67,10.07-10.3-1.05,1.11-2.12,2.33-3.36,3.61-1.27,1.25-2.59,2.69-4.21,4.16-3.14,3.02-7.13,6.5-12.52,10.56Z"/>
        <path class="cls-6" d="M855.32,620.6c.88-.04.84,0,.91.02,1.82-.22,2.51-.31-.91-.02Z"/>
        <path class="cls-6" d="M866.92,619.64c-2.04.29-3.72.71-10.39,1.3-5.8.37,0-.21-.31-.32-2,.23-5.51.63-6.94.79-1.44.17-.79.29,5.53-.15l1.99-.23c5.68-.45,12.18-1.07,17-1.58,4.82-.54,7.97-.91,6.99-.72-3.35.14-6.3.34-13.87.91Z"/>
        <path class="cls-6" d="M931.53,606.13c7.45-2.58,14.79-5.48,21.96-8.77-1.85.78-3.74,1.48-5.6,2.22l-5.65,2.07h.65c-6.29,2.36-8.78,3.21-9.84,3.68-1.07.46-.75.46-1.51.8Z"/>
        <path class="cls-6" d="M1029.51,526.91c-.17,1.07-.46,2.11-.69,3.18.79-2.21,1.37-4.49,2-6.74.5-2.29,1.09-4.55,1.42-6.86-.67,3.52-1.64,6.99-2.73,10.42Z"/>
        <path class="cls-6" d="M1034.6,490.11c.13.29.26.61.39.97l-.04-3.23-.02-1.59v-.1s-.04.04-.06.06l-.13.16-.25.33-.5.65-3.95,5.13,3.24-3.94.8-.97.4-.48c.06-.06.15-.21.18-.2v.36s-.06,2.85-.06,2.85Z"/>
        <path class="cls-6" d="M795.65,768.84c-1.95-1.29-3.95-2.5-5.85-3.86,2.71,1.9,4.55,3,5.85,3.86Z"/>
        <path class="cls-6" d="M841.7,789.89l1.26.12c-2.31-.48-3.27-.65-1.26-.12Z"/>
        <path class="cls-6" d="M598.88,653.86c-2.26-9.83-4.63-20.85-4.75-19.56l.39,3.1c1.9,6.78,3.26,12,4.36,16.46Z"/>
        <path class="cls-6" d="M699.45,780.17c-.96-.04-1.96-.09-2.95-.13l-5.59.34-.57-1.17.54,1.21,8.56-.25Z"/>
        <path class="cls-6" d="M706.56,778.38l13.29.28c-2.99-.1-7.26-.19-13.29-.28Z"/>
        <path class="cls-6" d="M881.26,754.75c-1.38.05-2.76.18-4.14.16l-4.13-.09c1.61.12,2.94.21,4.02.29,1.08.1,1.93.02,2.58.03,1.3-.02,1.84-.05,2-.1.32-.08-.84-.2-.33-.3Z"/>
        <path class="cls-6" d="M747.01,590.52c-1.49-.03-2.93-.05-4.29-.08-2.05-.02-3.98-.04-5.75-.06-1.6,5.75-2.92,10.55-4.14,14.94.74-2.48,1.44-4.84,2.09-7.02.33-1.09.64-2.14.94-3.14.46-1.6.89-3.11,1.3-4.54,1.54.02,2.97.03,4.3.05.89,0,1.7,0,2.43,0,1.37-.01,2.44-.06,3.14-.15Z"/>
        <path class="cls-6" d="M814.96,774.83c-3.72-1.9-5.34-2.66-5.27-2.52,3.83,1.96,6.01,3.04,5.27,2.52Z"/>
        <path class="cls-6" d="M726.3,629.57c.43-1.47.85-2.91,1.29-4.41,1.58-6.16,3.19-12.35,5.23-19.84-2.19,7.42-4.6,15.95-6.52,24.25Z"/>
        <path class="cls-6" d="M839.6,669.4c-.72-.1-1.59-.22-2.24-.31-.23.03.77.15,2.24.31Z"/>
        <path class="cls-6" d="M962.63,640.66c-2.54,1.38-6.85,3.31-10.96,4.97,2.01-.78,5.4-2.11,10.96-4.97Z"/>
        <path class="cls-6" d="M932.63,558.92c6.02-2.29.94-.4,0,0h0Z"/>
        <path class="cls-6" d="M962.17,548.18c-1.22.63-2.14,1.13-2.25,1.29.44-.32,1.22-.76,2.25-1.29Z"/>
        <path class="cls-6" d="M712.12,692.7c-.05.18-.09.33-.15.54.58-1.84.48-1.53.15-.54Z"/>
        <path class="cls-6" d="M941.74,555.58c-2.27.85-4.85,1.89-7.72,2.9.63-.22,1.53-.54,2.8-.99,1.25-.49,2.86-1.11,4.92-1.91Z"/>
        <path class="cls-6" d="M940.45,555.88c2.06-.82,3.69-1.46,5.23-2.08.72-.39.05-.12-5.23,2.08Z"/>
        <path class="cls-6" d="M924.2,562c3.49-1.19,6.71-2.39,9.82-3.53-1.2.42-1.7.58-1.39.45-1.77.67-4.25,1.65-8.43,3.08Z"/>
        <path class="cls-6" d="M873.85,709.8c-.43-.06-.92-.13-1.39-.19-3.28-.24-4.2-.35-3.67-.28.53.09,2.52.24,5.06.46Z"/>
        <path class="cls-6" d="M559.11,655.26c-.09-.29-.13-.44-.22-.71.08.29.17.66.24.93l-.02-.22Z"/>
        <path class="cls-6" d="M565.55,677.66c-3.13-9.43-4.56-14.9-6.43-22.18l.82,7.77,5.6,14.41Z"/>
        <path class="cls-6" d="M775.32,733.89c-3.99-3.64-7.79-7.47-11.5-11.38,7.07,6.74,13.5,12.13,16.7,14.63,3.18,2.53,3.01,2.29-2.6-2.76-.63-.14-3.96-2.71-8.41-6.78-4.44-4.08-9.96-9.66-15.15-15.56l-.77-.86-.89-1.03-1.74-2.04c-1.15-1.35-2.31-2.7-3.45-4.04-.57-.67-1.14-1.33-1.7-2-.03-.04-.07-.09-.1-.12l-.04.16-.09.32-.17.63-.34,1.26c-.45,1.67-.89,3.33-1.33,4.96-.83,3.11-1.64,6.13-2.41,9.01-.02.09-.05.19-.07.28l.18.22.37.44c.24.29.48.58.72.87.41.49.82.98,1.22,1.46.53.63,1.05,1.24,1.55,1.83,1.99,2.36,3.7,4.35,5.07,5.69,1.35,1.37,2.25,2.2,2.57,2.3,2.29,2.82,4.78,5.47,7.22,8.17-2.18-2.24-2.53-2.6-4.68-4.81,7.03,7.95,10.17,10.42,13.76,13.46,1.86,1.45,3.87,3.02,6.68,5.36,1.44,1.13,3.09,2.44,5.06,3.99.99.77,2.01,1.65,3.19,2.53,1.17.88,2.44,1.82,3.8,2.84.95.72,1.86,1.41,2.72,2.07.87.64,1.72,1.2,2.47,1.74,1.52,1.08,2.76,1.96,3.59,2.55,1.65,1.21,1.64,1.31-1.11-.44l2.23,1.45c.74.48,1.53.9,2.29,1.36l4.6,2.67c1.51.93,3.13,1.66,4.69,2.5,1.58.8,3.14,1.64,4.74,2.41,5.61,2.62,4.11,2.27-1.43-.47,9.67,4.86,19.87,8.76,30.44,11.28l-.24-.02c1.14.24,2.63.59,4.34.8.85.13,1.75.26,2.68.4l.7.11.55.08.72.08c1.02.1,2.15.13,3.25.22.57.04,1.11.07,1.61.11h.19c.05.02.17.01.09.05-.08.06-.15.12-.22.18-.15.12-.29.23-.42.34-2.21,1.45-1.71,1.04-.99.48.36-.28.79-.62,1.08-.85.02-.02.09-.06.06-.07-.05,0-.1,0-.14,0-.09,0-.17,0-.21,0-.1,0-.13.02-.05.05.37-.02,0,.14-.08.24l-.43.33-.88.69c-.59.49-1.28.87-1.96,1.34-.36.23-.66.46-1.09.68l-1.86.99c-.64.33-1.26.7-1.92.99l-1.98.85c-3.32,1.17-1.68.31,2.11-1.37.92-.49,1.96-1.05,3.1-1.66.19-.1.39-.21.59-.32.13-.09.27-.17.4-.26.27-.17.54-.35.82-.53.57-.34,1.1-.75,1.65-1.15.27-.2.57-.41.81-.6-.34-.04-.67-.08-1.01-.12.12.05.24.1.35.15l.14.07c.06,0-.03.04-.09.07l-.17.09c-.4.21-.78.41-1.14.6-.62.35-1.07.56-1.45.76-.19.1-.36.2-.53.31-.2.13-.2.12-.92.5-.56.3-1.13.6-1.72.91-.59.32-1.19.66-1.86.93-.66.29-1.36.6-2.1.92-.37.16-.75.33-1.15.5-.41.14-.83.28-1.26.43-.87.29-1.81.6-2.81.93-1.03.24-2.13.5-3.32.78-4.76.93-11.17,1.56-19.57-.2,5.26.91,10.62,1.08,15.86.39-5.11.22-10.75,0-17.22-1.4-3.21-.81-6.65-1.72-10.22-3.24-1.82-.66-3.61-1.6-5.52-2.47-1.85-1.01-3.8-1.98-5.72-3.22.46.28,1.26.85,2.35,1.47,1.1.6,2.42,1.41,3.9,2.16,1.49.72,3.07,1.59,4.7,2.24.81.35,1.61.7,2.39,1.04.8.29,1.57.58,2.3.85.73.26,1.42.55,2.06.75.64.2,1.22.38,1.72.54,1,.32,1.69.57,1.9.7.22.11-.04.14-.91-.02-.44-.08-1.03-.19-1.8-.36-.38-.08-.81-.17-1.28-.28-.47-.11-.98-.28-1.54-.44-1.24-.43-2.6-.82-4.03-1.43-.72-.28-1.47-.57-2.25-.88-.78-.3-1.57-.7-2.41-1.06-3.36-1.45-7.16-3.42-11.54-6.01.09-.24-2-1.6-5.27-3.99-3.26-2.4-7.7-5.82-12.31-10.04.35.04.7.08,1.06.1-2.49-2.25-4.31-3.9-5.7-5.24-1.41-1.3-2.41-2.26-3.28-3.1-1.77-1.65-3.03-2.83-5.77-5.73-4.9-5.75-7.48-9.53-9.2-12.13-.84-1.32-1.45-2.35-1.97-3.24-.26-.44-.48-.87-.69-1.27-.11-.21-.22-.42-.33-.62l-.63-1.06c-3.11-4.68-5.17-7.79-6.46-9.73-.63-.93-1.07-1.58-1.36-2-.14.49-.19.78-.18.82,0,.05.07-.12.18-.43.01-.04.03-.08.04-.12.03.05.06.1.09.16.06.11.13.22.21.35.15.24.31.51.49.81.7,1.14,1.62,2.64,2.51,4.09,1.73,2.81,3.26,5.38,2.66,4.64-.29-.35-1.11-1.52-2.61-3.72-.75-1.11-1.67-2.48-2.82-4.18l-.22-.32s-.04-.08-.05-.06l-.03.1-.05.2c-.07.27-.14.54-.22.82-.15.55-.3,1.13-.46,1.74-.32,1.2-.67,2.5-1.05,3.91-1,3.57-1.96,7.01-2.89,10.36l-.1.35c-.03.12-.1.24.01.33l.41.59.81,1.17c.38.55.76,1.1,1.14,1.65.67.97,1.33,1.93,1.99,2.88,1.38,1.86,2.73,3.7,4.09,5.53,1.42,1.79,2.84,3.58,4.27,5.39,5.88,7.14,12.53,14.35,21.74,22.52,1.29,1.26,2.29,2.11,2.97,2.74.69.62,1.08.99,1.26,1.18.36.38-.13.02-.84-.53-1.42-1.09-3.71-2.95-1.81-1.19,1.69,1.31,3.33,2.68,5.05,3.94,1.74,1.25,3.42,2.55,5.2,3.74,2.52,1.86,1.61,1.39,1.15,1.15,2.2,1.56,3.38,2.32,4.15,2.72.75.42,1.05.52,1.5.73.46.21,1.07.53,2.46,1.37.71.4,1.61.92,2.8,1.6,1.19.69,2.63,1.57,4.52,2.53.54.2,1.42.62,2.57,1.22.27.14.63.34.88.46.25.12.51.25.78.38.54.27,1.12.56,1.75.88,1.3.7,2.47,1.19,3.72,1.79l.46.22.12.05.06.03s-.04.02-.05.02l-.3.09c-.39.12-.79.25-1.19.38-.79.27-1.61.45-2.4.67-.8.19-1.59.36-2.37.5-.62.11-1.25.22-1.88.32-.67.14-1.35.18-2.03.28-2.73.36-5.54.48-8.32.41-5.58-.11-11.07-1.16-15.89-2.58-4.6-1.83,2.38.43,1.03-.33-6.53-2.01-10.88-4.43-14.18-6.42-3.3-2.03-5.58-3.69-7.68-5.35-2.11-1.64-4.03-3.28-6.45-5.51-2.41-2.24-5.31-5.11-9.07-9.49-1.01-1.29-1.97-2.63-2.94-3.95l-1.41-2.02c-.23-.34-.47-.67-.7-1.01l-.79-1.19-.95-1.42-.24-.36-.12-.18-.06-.09s-.04-.06-.04-.02v.11s0,.08-.1.08l-.45.06c-.3.03-.62.1-.9.09h-.86s-1.3-.04-1.3-.04l-4.97-.1c14.6.48-4.05,1.05-20.4,1.52,5.18.22,9.61.41,12.58.53l-21.52.28-2.16-5.07c-.55-1.48-.53-1.63-.13-.93.2.35.49.91.85,1.63.36.73.8,1.62,1.28,2.6-.74-1.64-1.44-3.2-1.98-4.42-3.33-8.71-1.15-4.38,1.72,1.66.41,1.14.82,2.27,1.21,3.36,1.78.08,3.51.16,5.21.23,6.44-.39,12.47-.82,11.13-1.19-1.7.07-4.96.14-8.55.17,1.68-.11,2.76-.2,1.98-.26-.44-.03-1.34-.02-2.67.03-1.29.05-3,.12-5.08.21-.48-.09-.92-.18-1.3-.27l-.23-1.16-.05-.26-.02-.12-.06-.22-.25-.9-.81-1.22-12.57-31.72c-3.14-6.98-6.15-13.68-9.3-20.67-1.57-3.5-3.18-7.07-4.85-10.79-.91-2.07-1.85-4.18-2.8-6.34-.99-2.25-1.99-4.55-3.03-6.92-2.01,5.5-4.16,11.34-6.48,17.68-2.15,5.75-4.48,11.95-7.01,18.73,2.99-9.15-.05-2.24-.44-2.95,1.63-3.55,3.5-8.29,5.58-13.81,2.5-6.67,5.33-14.24,8.32-22.24,1.38,3.3,2.79,6.66,4.21,10.06,1.1,2.67,2.21,5.37,3.32,8.08-.98-2.43-1.64-4.13-2.07-5.26-.3-.8-.52-1.4-.68-1.83-.17-.47-.26-.77-.3-.92-.08-.32.08-.07.36.51.14.3.31.66.51,1.08.16.36.34.76.53,1.16l-5.88-13.86-6.28,16.77-4.46,12.09c-.18-.94-3.11,6.95-6.68,15.6,1.75-3.12-.51,3.17-3.83,11.94-1.67,4.38-3.58,9.4-5.4,14.16-.91,2.39-1.79,4.71-2.61,6.86-.77,2.08-1.48,3.99-2.09,5.63-.13.1-.18,0-.14-.31.01-.08.03-.17.05-.28.03-.13.1-.36.16-.57.14-.45.32-1.02.57-1.73.97-2.82,2.83-7.81,6.09-16.08-1.93,4.45-3.39,8.17-4.63,11.52-.62,1.67-1.17,3.25-1.7,4.78-.24.72-.48,1.44-.72,2.14-.13.45-.27.9-.4,1.34-.47.04-.94.08-1.41.12-.77.04-1.54.07-2.33.11-1.64.07-3.32.13-5.11.17-3.58.08-7.59.08-12.46-.08,4.34,0,6.68.04,8.4-.13-2.72.08-6.5.12-10.44.13-1.97,0-3.99,0-5.93,0-1.6-.01-3.14-.03-4.53-.04-.28-1.11-.54-2.12-.75-2.98-.28-1.14-.51-2.08-.67-2.75-.31-1.35-.33-1.65.1-.36l1.14,4.15c-7.46-27.78-23.08-84.62-25.03-88.54.03-.31,1.98,3.37,2.61,5.01l-16.3-48.86c1.9,4.18-1-13.06,5.69,9.89-1.71-6.65-3.82-14.87-7.88-28.76,1.13,4.54,2.05,11.53.3,5.38-3.84-17.15-2.79-11.87-7.82-32.94.69,2.77.58,3.22,0,2.06-.28-.57-.69-1.58-1.15-2.85-.37-.93-.83-2.22-1.32-3.76.69-.02,1.41-.05,2.17-.07.83,0,1.7-.01,2.58-.02-.87.09-.63.37-.69.64-.07.28-.27.55-1.23.61l.84-.07.22-.02.32-.02.86-.04,3.45-.14,6.9-.28,13.8-.56c-6.89.2-1.22.95,4.96,1.27-.46-.04-.16-.06.68-.07.52,0,1.38-.01,2.46-.02.86,3.23,2.1,7.87,3.26,12.24,1.31,4.9,2.54,9.5,3.23,11.91l-2.79-11.36c7.93,30.14,9.52,29.31,17.5,59.18-1.2-3.55-3.78-8.55.17,6.66,1.04,2.92,3.21,8.87,5.93,16.79,1.36,3.96,2.87,8.42,4.45,13.23,1.25,3.8,2.59,7.86,3.98,12.1.99-2.83,1.87-5.32,2.72-7.62l2.21-4.69,7.39-19.65c-1.15,3.57-2.94,8.95-5.04,15.23-1.06,3.14-2.19,6.49-3.36,9.96-1.19,3.49-2.61,7.6-4.23,12.19-3.75-11.99-7.41-23.69-10.1-32.31,1.39,5.66,1.51,6.47,1.85,7.97.17.75.4,1.67.87,3.46.49,1.82,1.21,4.51,2.36,8.8.57,2.4.59,2.77.25,1.71-.15-.5-.4-1.3-.71-2.33-.2-.68-.45-1.5-.72-2.41-1.06-3.64-2.46-8.66-3.13-11.14l8.92,33.65,8.69-21.7c-1.29,1.43,10.84-29.14,9.75-27.91l-7.82,20.65-4.04,10.65-6.5,16.83s0,0,0,0c-.23.13.66-2.66,2.13-6.94,1.21-3.44,3.03-8.6,5.27-14.94,3.41-9.62,8.32-22.76,13.69-36.11,2.95-6.71-.91,5.54-.48,5.07,1.16-3.56,9.67-25.58,10.8-27.97l-4.17,11.49c3.07-7.4,5.28-13.57,7.68-20.09,1.2-3.26,2.45-6.61,3.88-10.25.72-1.82,1.48-3.71,2.3-5.7.21-.49.41-.99.63-1.49.19-.39.4-.79.66-1.15.52-.72,1.19-1.32,1.97-1.71,1.04-.58,2.71-.84,4.27-.3,1.57.52,2.71,1.69,3.12,3.15,1.31,3.95,2.5,7.43,2.89,7.88-.77-2.6-1.26-4.73-1.51-6.35-.12-.8-.2-1.53-.19-2.02.01-.51.02-.9.07-1.19.09-.59.42-.78,1.05-.32.3.23.66.68.98,1.24.33.53.69,1.21,1.08,2.03.77,2.2,11.58,32.94,13.9,40.18,3.29,10.46-7.13-14.91-4.34-6,.31.31,2.65,5.9,3.61,8.24,2.31,6.6-1.55-2.51,3.86,11.67,1.53,2.14,10.8,28.93,3.06,6.52,2.7,6.92,4.06,10.62,5.5,14.64.73,2.01,1.48,4.09,2.42,6.7,1.11,2.99,2.45,6.59,4.21,11.3-1.15-3.66.87.7,3.17,5.86.78-3.45,1.74-7.68,2.74-12.06.91-3.94,1.92-8.1,2.87-11.8-.06.89,1.03-2.28,1.55-3.81,7.97-29.38,12.51-45.07,19.89-72.48.84-2.48,4.59-15.66,3.36-9.95.46-1.99.91-3.9,1.48-6.37.3-1.24.64-2.61,1.03-4.21.39-1.5.83-3.2,1.35-5.19.11-.34.21-.65.27-.82,1.13.05,1.84.09,2.26.13.48.03.69.06.56.08-.37.04-1.28.06-2.59.08-.39,1.55-1.5,5.73-1.99,7.77-.51,2.13-.55,2.67.65-.99-.02-.21.14-1.04.44-2.35.25-1.08.59-2.56,1-4.31.67-.02,1.38-.04,2.12-.06,1.07-.02,2.18-.04,3.33-.06,2.3-.03,4.74-.07,7.19-.11,4.9-.08,9.85-.16,13.86-.22-1.34-.21-5.24-.29-10.29-.29-2.52.01-5.33.03-8.24.05-2.76.04-5.62.08-8.41.12-1.21,4.85-2.36,9.48-3.24,13.04-.2-.04-.07-1.32.35-3.67.21-1.17.5-2.61.85-4.3.18-.84.37-1.75.58-2.71.23-1.04.48-2.14.74-3.3,2.33-.08,4.92-.18,7.76-.28,2.74-.08,5.7-.16,8.86-.25,6.32-.16,13.42-.29,21.04-.39.74,0,1.43-.03,2.09-.09.66-.05,1.29-.09,1.88-.13,1.19-.08,2.25-.15,3.19-.21,1.89-.12,3.31-.21,4.36-.28,2.12-.13,2.79-.11,2.86-.04.13.14-2.16.48-.13.26,11.02-.88,18.85-1.82,24.96-2.73,3.06-.43,5.69-.85,8.07-1.27,2.38-.42,4.53-.77,6.61-1.18,8.33-1.56,15.73-2.95,33.75-6.33,14.33-2.58.87.92,4.11.61-9.36,2.13-16.62,3.41-23.14,4.44-6.52,1.03-12.28,1.81-18.72,2.74,2.65-.31,5.29-.7,7.94-1.06,2.65-.35,5.29-.74,7.92-1.16-2.99.63-7.65,1.42-12.43,2.2-4.79.72-9.69,1.42-13.17,1.75,6.09-.53,24.67-2.9,45.68-7.27,10.51-2.16,21.62-4.77,32.12-7.57,10.51-2.79,20.37-5.86,28.5-8.51,5.71-2.09,15.43-6.02,10.71-4.47-1.68.64-3.36,1.31-5.05,1.92l-5.09,1.82c-4.76,1.43,0-.39,4.31-2.02,4.3-1.67,8.12-3.26,1.7-.94,6.72-2.67,13.83-5.56,21.44-9.1,7.63-3.49,15.86-7.44,24.76-12.32,1.21-.43,2.44-.86,3.62-1.35-.21.07-3.16,1.6-6.68,3.47-1.74.96-3.67,1.93-5.47,2.84-1.8.92-3.46,1.79-4.71,2.47,1.86-1.02,4.55-2.36,7.67-3.89,1.53-.8,3.17-1.66,4.86-2.55,1.69-.88,3.44-1.79,5.14-2.79,1.71-.99,3.43-1.98,5.1-2.94,1.64-1.02,3.22-2.05,4.72-3.02,3.02-1.9,5.49-3.9,7.28-5.38-1.99,1.3-3.93,2.67-5.95,3.91l-6.08,3.69c6.01-4.02,12.58-8.74,19.07-14.21,6.45-5.51,12.85-11.69,18.68-18.4-.7.73-1.27,1.33-1.74,1.83-.5.48-.9.87-1.24,1.2-.68.68-1.12,1.16-1.67,1.74-.54.58-1.18,1.26-2.26,2.35-1.13,1.03-2.74,2.42-5.13,4.47,4.25-3.48-3.82,4.58-12.41,10.81-2.16,1.54-4.27,3.05-6.11,4.36-1.85,1.31-3.5,2.33-4.59,3.09-2.2,1.5-2.34,1.72,1.51-.5-1.43.8-2.79,1.59-4.12,2.38-1.34.77-2.68,1.47-3.98,2.22-1.3.74-2.6,1.47-3.9,2.21-1.32.7-2.65,1.41-4.01,2.13-1.36.72-2.73,1.48-4.18,2.21-1.46.71-2.97,1.45-4.54,2.22-3.13,1.57-6.66,3.01-10.58,4.69.28-.02,1.69-.58,1.32-.34-.19.11-.8.46-2.26,1.1-1.46.63-3.74,1.61-7.2,3.11-.6.33-2.07.99-3,1.41-.43.17-.58.22-.95.37.28-.11.49-.18.78-.29-.6.27-.65.3.29-.11,3.38-1.23,6.06-2.37,7.19-2.72-1.67.85-4.28,2.13-7.46,3.44-1.58.67-3.28,1.39-5.05,2.14-1.79.7-3.64,1.42-5.49,2.14-7.42,2.89-15.06,5.44-18.9,6.79-4.29,1.34-3.42.95-2.05.48,1.36-.52,3.19-1.2.83-.55-3.83,1.31-7.67,2.61-11.54,3.84-1.27-.04-23.2,5.53-2.88-.24l-4.58,1.28-4.6,1.19-4.6,1.19-4.62,1.11c-10.93,2.42-26.05,5.36-35.38,7.13-8.84,1.5-22.32,3.96-14.63,2.51-9.83,1.53-19.69,2.84-29.59,3.9l-.29-.09c-4.8.47-9.66.87-14.55,1.26-2.43.17-4.88.34-7.33.52-2.49.02-4.99.04-7.51.06-5.03.04-10.12.07-15.27.11-5.7.02-11.45.04-17.28.05-.87,3.2-1.74,6.43-2.62,9.67-.75,2.7-1.5,5.42-2.26,8.16-1.53,5.47-3.11,11.01-4.76,16.6-2.48,9.64-5.02,19.61-9.46,35.66l-1.22,3.03c-3.19,12.38-10.35,36.96-11.38,42.37-.06.17-.12.35-.18.53l-.05.14-.02.04-.04.07c-.05.09-.1.18-.15.27-.08.16-.17.33-.26.51-.16.33-.3.63-.42.93-.13-.42-.27-.88-.43-1.36l-.1-.3c-.09-.25-.19-.51-.28-.77-.53-1.42-1.07-2.87-1.62-4.34-2.23-5.88-4.59-12.12-6.93-18.29-4.7-12.33-9.31-24.38-12.36-32.72l-.78-.62c-2.7-7.24-5.39-14.32-8.27-21.83-.72-1.88-1.45-3.78-2.2-5.72-.37-.97-.75-1.95-1.13-2.94-.2-.51-.4-1.03-.6-1.55-.22-.62-.59-1.31-.99-1.92-1.66-2.52-4.6-4.04-7.53-4.19-1.47-.08-3.01.13-4.46.74-1.45.59-2.75,1.6-3.74,2.81.44-.3.9-.56,1.38-.78-.97.88-1.75,1.98-2.32,3.19-.31.66-.46,1.12-.68,1.67-.21.53-.41,1.07-.63,1.62-.86,2.18-1.77,4.49-2.72,6.9-1.94,4.8-4.06,10.01-6.28,15.5-4.48,10.97-9.45,23.04-14.26,35.23.5-1.72,2.99-7.88,4.82-12.21-3.59,8.25-7.07,16.85-10.47,25.54-1.68,4.35-3.37,8.71-5.05,13.06l-.62,1.63-.35.93-.48,1.32c-.35.96-.69,1.92-1.04,2.87-.41-1.37-.82-2.73-1.22-4.07-.82-2.95-1.63-5.88-2.42-8.76-1.71-6.29-3.31-12.4-4.72-18.27-1.99-6.79-3.27-11.75-4.45-16.56.18.63.34,1.2.48,1.69-.19-.7-.46-1.74-.75-2.81-.74-3.04-1.5-6.16-2.32-9.55.66,2.89,1.31,5.65,1.91,8.04-1.43-5.26-3.63-13.24-5.84-21.04l-.43-3.46c-.18-.63-.32-1.15-.5-1.81-1.9-7.73-1.88-6.12-1.13-1.92-1.14-3.92-2.2-7.51-3.07-10.28-.46-3.22-1.91-8.34-3.42-13.75-.76-2.7-1.53-5.48-2.21-8.12-.34-1.32-.65-2.61-.93-3.84-.3-1.44-.59-2.81-.86-4.07-.2-.62-.46-1.49-.86-2.86-2.24.04-5.68.1-9.75.16-3.39.04-7.29.09-11.25.14-3.96.06-7.96.13-11.54.18-1.94.05-3.76.09-5.41.13-2.11.05-3.92.1-5.36.16.67,2.13,1.16,3.58,1.48,4.3-.03.3.75,3.38-.78-2.21,1.26,4.74,2.51,9.47,3.74,14.08,1.15,4.25,2.32,8.37,3.5,12.25l.42,3.86,5.99,18.82c2.8,11.67,3.9,16.52.31,5.16,8.27,27.55,6.4,22.43,13.53,45.83l-.7-1.05c2.32,8.43,6.5,21.77,7.58,26.94,1.12,4.84,3.31,13.24,6.16,23.88,2.97,10.98,6.58,24.28,10.44,38.53,12.35.02,25.39.03,38.31.05,3.22-8.19,6.41-16.32,9.49-24.15,2.98-7.46,5.85-14.64,8.51-21.31-4.61,8.65,8.93-21.56,8.8-23.74.33-.66.74-1.55,1.14-2.41.23-.52.31-.64.41-.82.1-.18.18-.32.25-.42.13-.2.2-.23.17,0-.02.11-.06.29-.12.54-.03.12-.07.26-.12.42-.13.37-.28.8-.45,1.28.68-1.81,1.31-3.49,1.88-5.01,2.68,6.63,4.85,11.98,6.88,16.99,2.68,6.56,5.24,12.64,8.38,19.43.86,2.82-2.46-4.92-1.62-2.44.84,1.88,3.32,7.43,4.18,9.96.84,2.47-1.64-3.38-3.29-7.08,9.99,24.18,11.79,26.3,13.25,27.76.73,1.9,1.4,3.65,2.02,5.29.76,1.93,1.47,3.73,2.14,5.41,2.08,0,4.03.01,5.91.02,1.58-.02,3.1-.04,4.61-.06,3.01-.07,5.98-.19,9.3-.38,4.62.26,12.31.53-3.94.63,2.29.01,6.92.04,12.6.07,2.6,0,5.44.02,8.37.03.02-.04.02-.13.05-.14l.1.14.19.28.39.57.64.93.72,1c.95,1.34,1.95,2.66,2.95,3.96,4.01,5.18,8.29,9.84,11.78,13.04,1.73,1.61,3.25,2.87,4.35,3.75,1.13.85,1.82,1.33,1.96,1.35,1.08.98,3.66,2.97,6.36,4.69,2.67,1.76,5.5,3.16,6.6,3.7,4.67,2.37,8.54,3.66,11.86,4.57,3.33.91,6.16,1.32,8.98,1.61,2.82.3,5.66.3,9.06.08,1.7-.11,3.53-.35,5.57-.69,1.04-.22,1.94-.34,3.54-.74.72-.19,1.46-.39,2.22-.6.76-.2,1.55-.4,2.29-.67l-.86.27-.9.23-1.79.45c-.6.14-1.18.31-1.79.43l-1.54.28.74-.21.89-.24c.6-.19,1.2-.38,1.81-.57,1.21-.37,2.41-.72,3.59-1.16,1.19-.41,2.44-.83,3.76-1.33.66-.24,1.34-.49,2.04-.74.16-.03.01-.07-.06-.11l-.25-.11-.49-.23c-.33-.15-.67-.31-1-.46-1.36-.63-2.78-1.29-4.28-2-1.54-.75-3.16-1.54-4.87-2.38-.41-.21-.92-.43-1.27-.63-.36-.2-.73-.4-1.1-.61-.74-.41-1.51-.83-2.29-1.27-1.59-.83-3.19-1.87-4.93-2.89l.44.17c-1.98-1.19-3.67-2.42-5.23-3.48-1.57-1.04-2.91-2.07-4.12-2.98-2.46-1.78-4.26-3.3-5.75-4.47-1.5-1.16-2.58-2.13-3.51-2.9-.93-.78-1.69-1.41-2.44-2.04-1.47-1.31-2.94-2.58-5.64-5.18-2.64-2.65-6.59-6.54-12.44-13.55l.96,1.8c-1.53-.92-6.75-7.17-12.67-15.67-.75-1.05-1.5-2.15-2.24-3.28-.7-1.06-1.41-2.13-2.13-3.23-.48-.4-.09-.95.01-1.44.19-.65.38-1.3.57-1.95.29-.98.58-1.96.87-2.94l.42-1.43.2-.71.1-.35.05-.18.03-.09s.03.04.05.05c.54.85,1.08,1.69,1.62,2.53.55.84,1.06,1.55,1.68,2.44.78,1.15,1.62,2.24,2.42,3.32-.71-1.08-1.45-2.13-2.13-3.23l-1.63-2.62c.33.45.67.93,1.03,1.43.41.59.83,1.21,1.27,1.85.98,1.41,2.01,2.91,3.09,4.48,2.19,3.1,4.54,6.47,7.04,9.73,4.94,6.56,10.37,12.83,14.72,16.89,1.85,1.82-3.13-2.64-5.68-5.21,5.36,5.64,8.56,8.32,10.24,9.74,1.73,1.38,1.99,1.46,2.08,1.37.09-.09,0-.36,1.01.31.5.35,1.29.9,2.55,1.78.62.45,1.36.99,2.24,1.62.89.61,1.92,1.32,3.12,2.14,1.66,1.37.41.76.34.93-.04.09.22.38,1.33,1.15.55.39,1.32.91,2.36,1.6,1.04.69,2.41,1.46,4.11,2.46,1.69,1,5.11,2.81,9.8,4.64,4.67,1.83,10.69,3.61,17.33,4.31,6.62.73,13.82.3,20.41-1.36l1.24-.29,1.2-.38c.8-.25,1.59-.5,2.38-.75.8-.22,1.54-.55,2.29-.85.75-.3,1.49-.6,2.22-.89.74-.27,1.42-.64,2.11-.97.69-.33,1.36-.66,2.02-.99l.59-.29c.23-.11.47-.23.71-.37.45-.28.9-.56,1.34-.84.9-.56,1.77-1.11,2.63-1.64-1.57.93-3.06,1.85-4.27,2.52-.31.16-.6.27-.83.38-.19.08-.36.14-.51.2-.3.12-.51.19-.62.21-.21.04.02-.14.9-.65.22-.13.61-.32,1.01-.58.39-.26.84-.56,1.34-.9,1-.66,2.23-1.48,3.73-2.47,1.16-.75,2.31-1.64,3.55-2.5.62-.44,1.24-.89,1.88-1.34l.48-.34.24-.17.12-.09s.12-.07.03-.06c-.38-.05-.77-.11-1.15-.16-3.13-.45-6.44-.92-9.86-1.42-.94-.12-1.87-.3-2.8-.49-.63-.13-1.27-.26-1.91-.39-1.27-.26-2.55-.5-3.83-.79-2.54-.7-5.11-1.41-7.67-2.12-10.18-3.1-19.62-7.62-26.2-10.67-1.77-1.03-2.41-1.45-2.46-1.55-1.38-.67-2.91-1.57-4.59-2.56-1.67-1-3.53-2.02-5.39-3.22-1.86-1.22-3.8-2.49-5.76-3.78-1.96-1.3-3.85-2.76-5.77-4.12-.95-.7-1.91-1.35-2.81-2.06-.9-.71-1.79-1.41-2.65-2.1-1.72-1.38-3.41-2.63-4.87-3.88-2.92-2.5-5.34-4.48-6.78-5.67-.89-1.14-2.42-2.82-4.42-4.88-.5-.51-1.03-1.05-1.59-1.62-.54-.58-1.1-1.19-1.68-1.82-1.17-1.25-2.43-2.58-3.75-3.99-1.36-1.37-2.65-2.93-4.05-4.48-1.37-1.57-2.86-3.13-4.26-4.82-1.39-1.66-2.8-3.35-4.22-5.04l-.64-.75c-.09-.06-.02-.14,0-.22l.06-.23.12-.47c.18-.71.36-1.41.53-2.12.16-.66.33-1.32.49-1.97l.12-.5.06-.25.03-.12.02-.06s.03.02.04.03l.63.72c.43.49.85.97,1.27,1.45.21.24.43.48.65.72.28.31.56.61.83.92,1.36,1.51,2.67,2.96,3.94,4.28,1.26,1.34,2.43,2.61,3.55,3.73,2.2,2.28,4.01,4.15,5.26,5.45,1.23,1.32,1.86,2.11,1.71,2.22,9.35,8.78,19.35,16.94,30.2,23.87l-.93-.42c10.33,6.79,18.03,10.29,23.96,12.61,1.5.54,2.89,1.03,4.19,1.49,1.3.46,2.55.77,3.72,1.11,2.33.72,4.49,1.11,6.61,1.59,5.58,1.31,1.46.57.97.57,8.87,2.03,16.06,2.31,22.02,1.84.75-.07,1.47-.14,2.19-.21.71-.06,1.41-.13,2.08-.27,1.35-.25,2.65-.49,3.9-.72,1.24-.29,2.43-.66,3.59-.98.58-.17,1.16-.32,1.73-.5.55-.21,1.1-.43,1.65-.64,1.09-.43,2.18-.84,3.25-1.28,1.04-.52,2.08-1.05,3.14-1.58.53-.27,1.06-.53,1.59-.82.51-.32,1.02-.64,1.55-.97,1.04-.66,2.12-1.31,3.2-2.05,1.04-.79,2.11-1.62,3.23-2.48.28-.22.56-.43.85-.65.13-.09.3-.25.47-.41l.51-.48c.67-.63,1.36-1.28,2.07-1.94.69-.65,1.41-1.32,2.14-2,.72-.69,1.42-1.5,2.15-2.26.71-.76,1.45-1.55,2.2-2.36l.56-.6.28-.3.14-.15.07-.08s.07-.06,0-.04c-.6.05-1.21.1-1.83.15-.96-.09-2.04-.19-3.24-.28-1.45.12-3.59.26-6.37.42-.36.01-.73.04-1.13.04-.33,0-.67,0-1.02,0-.56,0-1.14,0-1.76-.01-1.22-.01-2.55-.03-3.97-.04-.71-.02-1.45.01-2.2-.05-.75-.06-1.53-.13-2.33-.2-1.59-.14-3.27-.28-5.02-.43-.44-.04-.88-.08-1.33-.11-.44-.07-.89-.13-1.34-.2-.9-.14-1.82-.28-2.76-.43-1.87-.31-3.81-.55-5.78-.93-1.96-.43-3.97-.88-6.02-1.33-1.02-.24-2.07-.42-3.1-.71-1.03-.29-2.07-.59-3.11-.89-2.08-.61-4.22-1.15-6.34-1.84-2.1-.72-4.23-1.45-6.36-2.19-2.15-.68-4.23-1.59-6.34-2.42l-3.15-1.26c-1.05-.41-2.1-.83-3.12-1.32-4.09-1.89-8.2-3.65-12.02-5.7.33.11,1.01.36,3.47,1.58-8.77-4.26-17.98-9.8-26.86-15.98-8.85-6.23-17.22-13.26-24.75-20.04-1.84-1.75-3.64-3.46-5.4-5.13-.28-.26-.55-.53-.82-.79-.15-.17-.42-.29-.26-.54.12-.41.23-.82.35-1.22.1-.37.21-.74.31-1.1l.04-.14s.08.06.12.09l.24.2.47.39c.41.33.81.65,1.2.96.73.57,1.44,1.12,2.14,1.66,6.25,4.79,11.47,8.13,14.72,9.79,7.3,4.76,14.81,9.19,22.51,13.23-7.38-4.1-10.63-6.28-11.73-7.02-1.08-.77.03-.2,1.68.67,3.31,1.76,8.8,4.64,2.89,1.03,11.34,6.79,30.15,16.17,15.44,9.18l-2.23-1.25c-2.86-.99,6.32,4.09,16.55,8.5,5.1,2.22,10.45,4.28,14.47,5.74,4.02,1.47,6.71,2.36,6.44,2.46,15.88,4.95,32.42,8.15,49.03,7.58,8.28-.31,16.55-1.61,24.42-4.26,7.86-2.63,15.29-6.62,21.66-11.89,3.19-2.62,6.13-5.53,8.79-8.66.65-.79,1.35-1.55,1.95-2.38l.93-1.22.47-.61.23-.31c.08-.1.19-.29.29-.42l2.4-3.59c.77-1.21,1.45-2.44,2.19-3.67.72-1.21,1.43-2.49,2.14-3.76l1.07-1.9.27-.48c-.08-.02-.3.08-.45.11l-.98.3-3.92,1.2-1.96.6-2.07.66-4.14,1.32-1.04.33c-.34.11-.74.24-.92.28l-1.42.37c-1.89.48-3.77,1.01-5.68,1.39-15.21,3.38-30.78,4.35-46.09,3.75,2.34.35,4.7.6,7.06.9-7.16-.07-14.31-.51-21.43-1.27-2.8-.37-4.65-.74-3.92-.78.37,0,1.39.04,3.26.21.94.09,2.09.2,3.48.33,1.39.11,3.03.23,4.94.38-3.99-.5-10.37-.99-15.8-1.63-5.43-.6-9.92-1.18-10.15-1.16-1.84-.37-3.41-.67-4.72-.95-1.31-.31-2.38-.55-3.23-.75-1.7-.41-2.54-.63-2.75-.73-.42-.19,1.67.16,4.39.65,2.71.52,6.09,1,8.2,1.36,2.12.29,3,.39.74.02l-6.13-1.11c-2.04-.39-4.07-.84-6.1-1.26l2.73.67c-2.49-.45-4.41-.79-6.17-1.15-1.76-.36-3.38-.64-5.22-1.08-3.69-.88-8.4-1.96-17.16-4.84-10.99-3.9-5.51-2.36-9.81-3.94.02-.02-.33-.17-1.33-.55-1.01-.36-2.66-.99-5.22-1.99-8.36-3.36-16.56-7.11-24.55-11.26,3.1,1.84,6.27,3.56,9.44,5.3-11-4.82-22.56-11.81-11.9-5.21-.99-.59-2.19-1.3-3.59-2.13-1.4-.81-2.99-1.73-4.71-2.79-1.73-1.04-3.63-2.16-5.62-3.43-.75-.47-1.53-.96-2.32-1.47-.08-.05-.17-.1-.24-.16l.08-.29.17-.58c.12-.44.25-.88.38-1.33.22-.77.44-1.56.67-2.37l.08-.3.04-.15.02-.08s.04.02.06.02l.55.33c.36.22.73.44,1.1.67,1.04.6,2.1,1.21,3.16,1.83,1.29.71,2.58,1.45,3.91,2.15,5.29,2.85,10.87,5.6,16.48,8.14,11.23,5.08,22.6,9.24,31.86,12.2,9.27,2.95,16.41,4.76,19.16,5.51,8.31,1.81,16.61,3.36,25.45,4.56,8.84,1.17,18.22,2.04,28.63,2.01-2.59-.04-4.65-.29-3.83-.44.41-.07,1.54-.13,3.69-.19,2.15-.05,5.31-.14,9.78-.38-1.61.44-.37.58,2.63.47,3-.12,7.78-.53,13.16-1.47,5.38-.92,11.34-2.4,16.74-4.22,5.41-1.79,10.23-3.93,13.58-5.51-2.99,1.41-1.59.62,1.79-1.36,3.38-1.98,8.56-5.53,12.99-9.62,4.47-4.04,8.11-8.57,9.76-11.05.87-1.21,1.25-1.91,1.06-1.76-.17.16-.99,1.1-2.62,3.08,2.32-2.98,3.38-4.61,3.98-5.38.6-.77.62-.76.64-.61-.01.26-.15.99,2.87-3.94.3-.57.6-1.15.9-1.73.16-.31.29-.53.46-.91l.54-1.2c.36-.8.72-1.6,1.09-2.41l.55-1.21.49-1.26c.64-1.7,1.32-3.35,1.94-5.1.31-.87.63-1.74.95-2.62l.48-1.31.12-.33c.04-.11.09-.24.05-.25l-.1-.23c-1.28.77-2.58,1.55-3.87,2.33l-1.94,1.16-.97.58-.95.52c-1.26.7-2.53,1.4-3.8,2.1l-1.91,1.05c-.3.16-.69.39-.91.49l-.69.33c-1.85.86-3.69,1.79-5.6,2.6-1.92.79-3.83,1.65-5.8,2.38-7.86,3.04-16.19,5.52-24.82,7.51-17.25,3.99-35.64,6.01-54.26,6.52-.68.19,6.62.27-2.71.77-7.67-.17-15.32-.68-22.94-1.4-4.28-.25-6.27-.11-9.14-.23-2.87-.09-6.63-.33-14.37-1.69,2.17.45,5.43,1.14-.29.39-10.55-1.58-21.07-3.69-31.47-6.42-10.4-2.72-20.67-6.11-30.62-10.34l-2.43-1.04c0-.32.17-.73.25-1.08l.38-1.39.76-2.83.15-.56.08-.28c0-.08.07-.01.11,0l.13.05,1.08.41,1.21.45,1.94.7c1.29.48,2.6.91,3.9,1.36,2.61.88,5.24,1.72,7.88,2.51,10.57,3.16,21.34,5.67,32.21,7.61,21.75,3.85,43.91,5.61,66,4.99,11.04-.31,22.07-1.24,32.98-2.94,10.91-1.69,21.7-4.16,32.17-7.71-2.84.94-4.53,1.38-5.3,1.58-.77.19-.63.11.14-.17,1.54-.55,5.6-1.88,9.83-3.59-5.56,2.07-.03-.45-1.21-.25,11.48-4.25,22.58-9.93,32.27-17.71,1.19-1.21,3.7-3.42,6.54-6.4,2.85-2.96,6.07-6.66,8.8-10.61,2.75-3.94,5.03-8.08,6.61-11.48,1.57-3.41,2.42-6.08,2.64-7.02-1.34,3.67-2.87,7.28-4.71,10.74,1.64-3.55,1.69-4.16.95-3.11-.38.52-.98,1.45-1.71,2.62-.74,1.17-1.7,2.53-2.68,3.98-2.08,2.84-4.51,5.9-6.57,7.94-.98,1.06-1.88,1.85-2.46,2.33-.59.48-.9.64-.8.36-2.7,3.26-6.26,6.71-10.58,10-4.32,3.3-9.38,6.45-14.97,9.31-11.18,5.77-24.45,10.15-37.95,13.84-3.04.55-1.77.2-.15-.23,1.61-.46,3.57-1.02,1.94-.74-3.39,1.03-7.21,1.95-12.14,2.86-4.93.9-11,1.77-18.93,2.38l1.78-.26c-11.11,1.06-20.71,1.3-29.57,1.18-8.87-.15-17.02-.64-25.3-1.49-8.29-.83-16.71-2.01-26.1-3.73-9.38-1.77-19.75-4.05-31.73-7.68,1.13.52,2.29.99,3.43,1.49-5.18-1.49-8.26-2.57-10.66-3.41-2.39-.88-4.1-1.52-6.43-2.45-.37-.11-.69-.2-.96-.28-.18-.06-.34-.11-.49-.15-.17-.05-.32-.1-.45-.14-.53-.17-.78-.23-.81-.22-.03.02.17.11.54.28.35.15,1.04.43,1.44.59,1.93.76,5.52,2.07,9.19,3.24,7.32,2.4,14.93,4.35,9.38,3.28-3.38-1.2-9.64-3.11-17.09-5.88-.47-.17-.94-.35-1.41-.52l-.79-.3-1.04-.4c-1.39-.54-2.81-1.09-4.26-1.65-.04,0-.1-.06-.12-.03l-.04.14-.08.28-.15.56-.31,1.13c-.21.76-.42,1.52-.62,2.28-.34,1.24-.68,2.5-1.03,3.77-.21.79-.43,1.57-.64,2.37l-.32,1.19-.16.6c-.02.1-.08.21-.06.29l.28.12c1.48.63,2.96,1.27,4.45,1.91,1.07.45,2.14.93,3.23,1.37l3.27,1.27c8.72,3.38,17.53,6.05,24.73,8.02,1.8.48,3.5.94,5.08,1.36,1.58.4,3.03.76,4.33,1.09,1.3.33,2.44.63,3.41.9.97.24,1.76.46,2.35.64,4.13.82,5.9,1.11,6.49,1.14.59.05,0-.12-.6-.29-1.19-.34-2.38-.68,5.89.72,1.45.34,2.91.62,4.36.94,1.42.07,2.84.16,4.26.21,5.46.7,9.57,1.23,12.36,1.58,2.79.41,4.27.61,4.47.77-.67-.05-1.47-.1-2.36-.16-.88-.07-1.83-.15-2.79-.23-1.92-.16-3.87-.29-5.29-.43,7.09.93,17.17,1.62,26.08,1.73,4.46.1,8.62,0,11.97-.04,3.35-.11,5.9-.2,7.13-.21-2.69.04-5.39.13-8.08.12-2.69-.03-5.39.01-8.08-.09,18.32.11,38.31-1.26,58.14-5.2,9.9-1.98,19.77-4.55,29.22-8,4.72-1.75,9.38-3.6,13.84-5.78l1.68-.8.84-.4.41-.2.21-.12c.57-.31,1.15-.62,1.72-.93l.86-.47.73-.44c.49-.3.98-.6,1.46-.89.4-.34.12.16.07.37l-.27.78c-.17.53-.39,1.04-.6,1.56l-.32.79-.43.93-.43.93-.12.25-.2.38-.4.75c-2.08,4.03-4.43,7.81-7.06,11.24l2.13-2.48c-2.35,3.37-4.65,6.03-6.71,8.26-2.13,2.18-4.02,3.94-5.8,5.39-3.53,2.92-6.4,4.78-9.43,6.54-3.03,1.75-6.24,3.42-10.86,5.31-1.17.45-2.41.92-3.76,1.44-1.37.45-2.82,1.01-4.44,1.47-3.2,1.02-6.96,1.98-11.41,2.88l1.29-.31c-7.08,1.71-16.82,2.96-26.84,3,4.62-.22.27-.22-3.71-.39-3.98-.21-7.58-.48-1.54-.44-4.5-.03-8.16-.23-11.15-.43-2.99-.2-5.33-.43-7.19-.59-3.72-.39-5.57-.59-7.03-.74-1.47-.13-2.55-.24-4.75-.48-2.2-.26-5.52-.67-11.43-1.72-1.78-.5-3.54-1.04-5.31-1.58-4.01-.79-6.18-1.23-9.57-2.05-3.38-.86-8-2.03-16.73-4.93,7.2,2.23,4.46,1.16,1.94.17-1.26-.49-2.45-1-2.33-1.05.12-.05,1.55.36,5.59,1.56-18.16-6.32-31.25-12.01-41.75-17.08-2.62-1.28-5.07-2.53-7.39-3.77-1.15-.63-2.29-1.22-3.37-1.85-.63-.36-1.26-.72-1.88-1.07-.76-.45-1.52-.9-2.27-1.34-.75-.45-1.49-.89-2.23-1.33l-.55-.33-.28-.17c-.04.08-.06.2-.09.29l-.34,1.21c-.47,1.62-.93,3.22-1.38,4.8-.47,1.56-.93,3.11-1.39,4.64-.06.2-.13.41-.18.61l.51.34,1.04.69,2.09,1.4c3.95,2.11,4.14,2.03,2.35.82-.45-.3-1.02-.67-1.69-1.11-.88-.55-1.88-1.19-2.98-1.87l-.43-.27-.22-.14-.11-.07s.01-.08.02-.12c.09-.34.19-.68.29-1.03.19-.7.39-1.41.6-2.15.39-1.41.79-2.87,1.2-4.36.21-.77.42-1.54.63-2.31l.16-.58.08-.29.02-.07s.04.02.06.02l.13.08,1.03.61c1.37.81,2.72,1.6,4.01,2.37,1.01.58,1.98,1.13,2.88,1.64.85.47,1.62.9,2.31,1.27,2.73,1.48,3.91,2.1,1.7,1,3.59,2.07.24.61-5.23-2.31-.74-.4-1.51-.83-2.31-1.27-.87-.5-1.77-1.01-2.7-1.54-.45-.26-.91-.53-1.38-.79-.08-.08-.08.03-.1.09l-.05.2-.1.4-.21.8c-.28,1.06-.56,2.13-.83,3.19-.27,1.03-.54,2.06-.81,3.08-.14.52-.27,1.03-.41,1.54-.1.15.08.2.18.27l.34.2.67.41c1.6.98,3.12,1.91,4.48,2.75,5.35,3.12,9.74,6.04,16.42,9.74,6.68,3.67,15.56,8.38,30.25,13.76-2.91-1.1-3.16-1.05-6.04-2.2,2.7,1.14,5.43,2.13,8.18,3.12,2.78.92,5.56,1.9,8.47,2.76,5.79,1.82,11.96,3.5,18.89,5.43,7.95,1.35,18.26,3.9,20.69,3.41-9.44-1.45-18.8-3.43-28.03-5.89,7.86,2.04,15.6,3.55,24.67,4.94,9.07,1.34,19.47,2.62,32.82,3.31-1.04.08-3.55.01-6.49-.04-1.47-.03-3.04-.14-4.58-.21-1.55-.08-3.07-.17-4.43-.3,7.78,1,15.04,1,23.16,1.21-1.15.45-9.91.5-20.49-.4-10.59-.87-22.93-2.97-31.51-4.58,4.07,1.11,12.22,2.5,18.28,3.3,6.06.77,10,1.14,5.59,1.09,6.34.19,14.01.93,22.82,1.17,8.79.22,18.75.04,29.23-1.86l-1.33.67c3.34-.53,10.22-1.76,16.25-3.22-1.81.5-3.61,1.02-5.43,1.49l-5.49,1.3c2.12-.43,4.22-.86,6.31-1.28,2.07-.49,4.14-.91,6.18-1.42,1.02-.26,2.03-.52,3.05-.78l1.52-.38.81-.22,1.3-.35.6-.16.46-.13.85-.24.2-.06s-.08.14-.12.21l-.29.45c-.38.61-.71,1.07-1.1,1.62l-.67.93-1.77,2.33c-1.23,1.52-2.46,3.03-3.79,4.47,1.42-1.48,2.57-2.91,3.62-4.15.49-.65.95-1.25,1.39-1.82.22-.28.43-.56.63-.82.09-.12.17-.24.25-.35.51-.72.87-1.23,1.12-1.59.51-.73.74-1,.89-1.03.15-.05.17.16.38.02.11-.07.27-.24.54-.62.14-.27,1.21-1.43-.03-.83.17-.07.35-.13.52-.2l.26-.1s.11-.05.11-.03l-.05.1c-.15.28-.29.56-.43.83-.28.55-.58,1.08-.89,1.59-.3.51-.59,1-.93,1.5-.17.25-.33.49-.48.72-.18.26-.25.39-.57.81-1.07,1.42-2.03,2.71-3,3.81-.93,1.14-1.86,2.09-2.69,2.97-3.42,3.47-5.95,5.29-8.63,7.11-.68.44-1.37.88-2.09,1.34-.74.43-1.52.88-2.35,1.36-.83.48-1.76.93-2.75,1.47-1.01.51-2.11,1.03-3.33,1.6-4.93,2.15-11.92,4.94-23.29,6.41.77-.1,1.7-.23,2.73-.37,1.02-.17,2.14-.35,3.29-.54,1.13-.24,2.29-.44,3.39-.69,1.09-.27,2.15-.48,3.07-.73,1.84-.49,3.21-.86,3.54-.93.33-.07-.33.3-2.64,1.04-4.18,1.21-9.18,2.16-13.81,2.58-4.63.44-8.88.43-11.57.27-3.81,0-6.6-.19-8.59-.32-1.98-.15-3.16-.25-3.76-.29-1.2-.1-.08.14,1.6.36.84.11,1.81.24,2.7.36.89.1,1.7.19,2.2.26,1,.14.76.21-2.51.07-5.2-.71-8.94-1.22-13.07-1.78-4.12-.59-8.65-1.26-15.23-2.96l.04-.49c-8.46-2.47-13.16-4.2-16.03-5.17-2.87-.98-3.89-1.28-4.83-1.5-.93-.24-1.76-.44-4.19-1.37-2.42-.96-6.46-2.61-13.6-6.17,4.14,1.77,8.32,3.43,12.54,4.98-5.11-2.1-10.16-4.39-15.14-6.82l3.31,1.03c-8.18-3.8-13.4-6.63-18.47-9.59-5.06-2.98-10.01-6.09-17.25-11.16,1.6,1.3.99,1.17-1.61-.44-1.3-.8-3.1-1.98-5.34-3.57-1.12-.79-2.35-1.69-3.69-2.7-.67-.5-1.36-1.03-2.08-1.59-.36-.28-.72-.56-1.1-.86-.21-.17-.42-.34-.64-.51-.25-.2-.5-.4-.75-.61-2.67-2.27-3.83-3.33-4.15-3.67-.34-.35.09-.06.12-.08.01-.01-.08-.11-.42-.41-.17-.15-.41-.35-.73-.62-.16-.13-.34-.29-.54-.46-.1-.09-.21-.18-.32-.27-.06.08-.09.28-.14.42-.35,1.28-.84,3.08-1.53,5.59-.34,1.24-.72,2.67-1.16,4.29-.11.4-.22.81-.34,1.24-.08.12.06.18.13.26l.25.23c.17.15.34.31.51.47.62.58,1.28,1.19,1.98,1.84-.3-.25-.6-.51-.9-.77-.37-.32-.74-.64-1.12-.96l-.58-.5-.29-.26-.15-.13c-.07-.04,0-.12,0-.17.12-.5.24-1,.36-1.51.48-2.04,1.07-4.41,1.73-7,.17-.65.34-1.31.52-1.99.09-.34.18-.68.27-1.03l.14-.52c.02-.08.04-.18.07-.26l.2.17c1.1.91,2.25,1.87,3.46,2.88,1.91,1.62,4.01,3.4,6.37,5.4.87.49,4.1,2.77,5.02,3.24-1.13-.89-2.33-1.84-3.57-2.82-.62-.5-1.25-1-1.89-1.52-.32-.26-.64-.52-.97-.78l-.49-.39-.77-.64c-2.15-1.78-4.34-3.59-6.53-5.41l-.86-.71-.21-.18-.08.27-.15.55-.6,2.21c-.4,1.47-.8,2.94-1.19,4.4-.39,1.44-.77,2.86-1.15,4.27l-.28,1.04c-.06.33-.34.73.08.93.52.48,1.03.96,1.54,1.43,1.36,1.26,2.67,2.47,3.91,3.62,2.2,2.04,4.14,3.84,5.72,5.14-.59-.52-1.22-1.06-1.84-1.6-.61-.55-1.2-1.13-1.78-1.68-1.14-1.09-2.17-2.08-2.85-2.76l3.05,2.73,1.52,1.37,1.58,1.3,6.32,5.21c2.13,1.7,4.34,3.31,6.51,4.97,1.09.82,2.16,1.66,3.27,2.45l3.37,2.33c4.07,3.16.68.89-2.7-1.37,2.71,1.92,5.02,3.51,7.66,5.32,2.7,1.71,5.74,3.62,9.86,6.23-1.2-.46-1.69-.59-3.37-1.47-.84-.45-1.97-1.09-3.62-2.09-.82-.51-1.78-1.1-2.9-1.79-1.11-.71-2.33-1.59-3.75-2.58l3.21,2.25,3.3,2.11c2.21,1.39,4.38,2.84,6.63,4.17l6.79,3.89,1.7.97,1.74.89,3.49,1.78c1.66,1.32,14.29,7.4,10.53,5.83,7.91,3.64,17.95,7.5,29.1,10.07,11.11,2.67,23.2,4.26,34.81,4.46.6-.04,1.51-.07,2.88-.1.33,0,.7-.01,1.09-.02.05-.01.2-.01.35-.03.32-.04.68-.08,1.1-.12.44-.03.87-.05,1.31-.08l.31-.02h.16s.16-.04.07.02l-.49.48-.95.92-1.26,1.05-.65.53-1.51,1.08c-1.02.71-1.99,1.48-3.04,2.14-1.07.63-2.13,1.26-3.21,1.9l-.8.48-.85.4-1.7.81c-9.05,4.37-19.75,6.22-31.91,4.99-4.57-.73-9.03-2.08-13.39-3.59-4.58-1.4-5.74-1.84-5.43-1.61.16.11.68.37,1.35.68.68.27,1.5.6,2.22.9,1.45.59,2.53,1.07,1.31.79-.61-.14-1.78-.47-3.78-1.06-1.95-.72-4.75-1.63-8.45-3.29-1.33-.54-2.49-1.1-3.53-1.62-1.04-.51-1.97-.96-2.79-1.36-1.61-.85-2.79-1.53-3.66-2.03-1.75-.99-2.21-1.41-2.29-1.56-.14-.32,1.35.27-2.06-1.87-4.97-2.79-11.67-6.92-18.89-12.46-3.63-2.74-7.34-5.88-11.1-9.25-3.7-3.43-7.48-7.08-11.04-11.02,4.98,4.97,8.92,8.85,13.88,13.15ZM810.29,798.7c2.21.63,5.57,1.3,8.79,1.74,1.61.18,3.19.3,4.57.43,1.38.04,2.57.1,3.4.19-1.29.1-2.52.18-3.75.18-1.23-.07-2.46-.18-3.77-.32-1.3-.21-2.68-.5-4.2-.8-.75-.2-1.55-.42-2.38-.65-.84-.23-1.73-.44-2.65-.78ZM681.45,754.41c1.49,3.2,3.49,8.27,5.66,14.03-1.74-4.11-3.64-8.79-5.66-14.03ZM864.8,578.8c-.2.05-.33.08-.49.12-10.35,1.92-6.68,1.25.49-.12ZM886.14,574.03c2.11-.62,1.95-.64,1.03-.48-.72.24-2.27.7-4.32,1.22-2.06.49-4.61,1.1-7.33,1.75,1.53-.26,4.32-.77,10.62-2.49ZM807.47,690.52l3.94,1.59c-4.52-1.59-6.13-2.21-6.3-2.33-.17-.11,1.09.35,2.36.73Z"/>
        <path class="cls-6" d="M705.6,778.59c1.34.08,1.71.17,2.03.26,1.86-.08,1.9-.17-2.03-.26Z"/>
        <path class="cls-6" d="M882.79,754.67h-.76c-.42.02-.64.05-.77.08l1.53-.08Z"/>
        <path class="cls-6" d="M681.95,663.69c-1.52-4.26-2.33-6.65-2.83-8.25-.2-.19.43,1.77,2.83,8.25Z"/>
        <path class="cls-6" d="M991.78,528.91c-3.82,2.59-7.66,5.18-11.65,7.54,1.44-.86,2.66-1.58,3.71-2.21,1.04-.65,1.91-1.2,2.7-1.69,1.59-.98,2.82-1.74,4.26-2.63-.33.06-2.61,1.41.98-1.02Z"/>
        <path class="cls-6" d="M1009.3,556.58c-.32.4-.66.81-.99,1.23-.36.4-.72.8-1.09,1.2-.73.81-1.45,1.61-2.12,2.37.19-.08.37-.17.55-.26,2.99-3.21,5.32-6.13,6.19-7.34.43-.61.52-.78.16-.35-.35.44-1.21,1.44-2.69,3.15Z"/>
        <path class="cls-6" d="M1003.08,522.55c.28-.09.92-.5,1.84-1.16.9-.68,2.04-1.66,3.4-2.81,1.34-1.16,2.93-2.46,4.49-4.04.79-.77,1.62-1.57,2.46-2.39.85-.81,1.72-1.65,2.53-2.57-.4.43-.77.85-1.19,1.25.82-1.22-.58.05-3.14,2.47-.64.61-1.35,1.3-2.11,2.03-.76.75-1.65,1.47-2.53,2.27-1.8,1.57-3.68,3.35-5.74,4.94Z"/>
        <path class="cls-6" d="M1019.33,507.92c1.01-1.12,2.09-2.19,3.06-3.35,1.13-1.35,2.25-2.7,3.35-4.02.45-.74-.34.24-1.81,2.02-.56.7-1.25,1.55-2.01,2.51-.8.88-1.68,1.84-2.58,2.84Z"/>
        <path class="cls-6" d="M912.72,566.17c4.45-1.33,2.61-1.39,5.16-2.05,2.37-1.07-4.91,1.54-9.84,3.22-4.94,1.66-7.43,2.71,4.68-1.17Z"/>
        <path class="cls-6" d="M1010.04,518.49l-3,1.92c-1.28,1.33-2.67,2.53-4.03,3.77,1.19-.93,2.43-1.79,3.57-2.78l3.46-2.91Z"/>
        <path class="cls-6" d="M943.12,557.35c2.45-.94,4.86-1.96,7.27-2.99,2.42-1.02,4.83-2.04,7.2-3.16-.25.02,1.54-.87,3.74-1.95-2.19,1.02-4.44,2.07-6.57,3.06-2.16.93-4.2,1.82-5.95,2.57-3.49,1.55-5.9,2.44-5.69,2.46Z"/>
        <path class="cls-6" d="M961.33,549.25c2.29-1.06,4.46-2.23,6.41-3.21.97-.5,1.87-.97,2.69-1.4.8-.46,1.52-.87,2.13-1.22-.6.33-1.37.75-2.24,1.23-.89.46-1.88.96-2.91,1.49-2.07,1.04-4.24,2.24-6.07,3.1Z"/>
        <path class="cls-6" d="M993.1,531.76c-1.31.84-2.64,1.64-3.96,2.46-3.08,2.06-6.3,3.91-9.48,5.8,2.26-1.34,4.56-2.62,6.79-4.01l6.65-4.25Z"/>
        <path class="cls-6" d="M778.44,592.36l-1.07.08h-1.07s-2.15.03-2.15.03l-4.29.04-8.59.07c-1.75.17,2.94.28,9.33.21,2.06-.05,4.67-.11,6.45-.16,1.77-.13,2.7-.27,1.38-.26Z"/>
        <path class="cls-6" d="M830.24,588.31c-4.62.57-4.95.48-7.57.69l-.43.69,8-1.38Z"/>
        <path class="cls-6" d="M780.35,593.75c-.21.04-.76.09-1.52.17-.38.04-.81.08-1.28.12-.47.03-.97.03-1.49.05-2.08.05-4.46.12-6.11.16-3.3.1-3.66.17,7.24.15.87-.11,5.63-.52,8.18-.75,2.54-.29,2.9-.32-5.03.1Z"/>
        <polygon class="cls-6" points="674.22 638.24 675.76 642.33 676.5 641.39 674.22 638.24"/>
        <path class="cls-6" d="M589.8,640.12c5.05,19.72,1.86,4.5,6.35,22.35,1.47,4.55-3.67-14.58-2.19-9.91-3.44-11.8-4.97-18.07-4.16-12.44Z"/>
        <path class="cls-6" d="M593.96,652.56c.56,1.89,1.15,3.89,1.78,6.02-.99-3.42-1.47-5.03-1.78-6.02Z"/>
        <path class="cls-6" d="M999.88,609.54c2.56-3.7,4.81-7.63,6.68-11.74-.65,1.3-1.28,2.61-2.03,3.87-.71,1.27-1.43,2.53-2.23,3.74l-1.16,2.1-1.26,2.04Z"/>
        <path class="cls-6" d="M1009.79,585.84c.48-.96,1-1.91,1.42-2.9.18-1.34.42-2.66.56-4l.38-4c-.43,2.98-1.49,8.75-2.36,10.9Z"/>
        <path class="cls-6" d="M780.16,780.68l-.85-.5c.7.71,1.65,1.5,3.03,2.57,1.35,1.11,3.18,2.39,5.63,4.11l-3.97-3.01c-1.28-1.06-2.58-2.09-3.84-3.17Z"/>
        <path class="cls-6" d="M781.73,759.56l1.2.98,1.24.93c-1.46-1.28-2.78-2.71-4.17-4.06l1.73,2.15Z"/>
        <path class="cls-6" d="M812.76,758.2c-5.28-2.65-11.36-6.09-16.32-9.43,10.88,7.05,17.46,10.75,16.32,9.43Z"/>
      </g>
    </g>
    <g>
      <path class="cls-1" d="M69.59,574.68c13.91,95.79,165.51,94.58,244.16,63.41l2.54,9.39c-65.56,29.43-166.13,28.49-218.45-4.67,29.3,85.81,156.59,56.78,221.89,17.29l2.19,8.09c-59.81,37.5-138.59,53.02-194.17,31.97,38.61,72.95,145.17,27.52,198.09-17.48l2.09,7.68c-42.53,41.39-95.72,66.33-144.16,60.89,44.05,48.93,111.31,2.94,149.06-42.85l2.56,9.44c-32.45,41.11-74.99,69.85-116.96,72.97,44.42,34.32,94.52-7.8,122.62-52.07l3.18,11.67c-20.64,30.59-46.42,54.37-74.72,65.58,34.12,13.31,62.48-6.02,82.74-36.01l.07.28h36.68s11.27-27.39,11.27-27.39l11.05-26.86,10.6-25.78,31.05,80.03h35.88s51.13-187.38,51.13-187.38h-39.9s-33.99,126.34-33.99,126.34l-39.62-99.83c-1.35-3.22-4.02-4.82-6.97-4.82s-5.89,1.61-6.95,4.82l-37.48,99.83-33.99-126.34h-38.47c-86.13-4.84-210.38-33.41-254.67-98.84-2,107.57,167.94,141.37,260.11,123.13l2.47,9.05c-70.95,19.31-193.25-4.84-240.94-51.54Z"/>
      <g>
        <path class="cls-6" d="M71.36,579.62c-4.36-4.07-3.08-2.32-3.79-2.87,7.44,6.72,3.68,2.61,3.79,2.87Z"/>
        <polygon class="cls-6" points="158.37 621.16 156.67 620.87 163.6 622.54 170.56 624.05 164.45 622.67 158.37 621.16"/>
        <path class="cls-6" d="M247.56,634.32c-1.07-.12-2.38-.22-3.89-.3-.75-.04-1.56-.08-2.41-.12-.85-.05-1.74-.11-2.67-.17-1.86-.1-3.87-.2-5.98-.31-2.11-.15-4.33-.3-6.61-.46-9.1-.68-19.13-1.78-27.06-3.16-.87-.17-1.73-.4-2.59-.59l-7.26-.68c9.64,1.74,20.8,3.24,31.28,4.19,10.48.95,20.28,1.42,27.17,1.61Z"/>
        <path class="cls-6" d="M295.92,632.54c-1.51.1,1.08-.37,1.35-.43-.13.02-.35.06-2.14.38-1.83.3-5.03.94-10.46,1.59,1.09-.1,1.41-.13,2.05-.18.98-.13,2.14-.25,3.62-.47,1.48-.24,3.3-.52,5.58-.88Z"/>
        <path class="cls-6" d="M286.72,633.9c-9.54,1.21,6.27-.55,0,0h0Z"/>
        <path class="cls-6" d="M298.06,616.01c1.02-.16,2.02-.37,3.03-.55l1.51-.28,2.1-.41,4.98-.99.31-.06.16-.03s.13-.06.13.03l.19.67.38,1.34.77,2.69c-.14-.58-.35-1.39-.59-2.36-.12-.49-.26-1.01-.4-1.56-.07-.28-.15-.56-.22-.85,0-.22-.19-.08-.31-.09l-.4.07c-2.17.38-4.6.8-6.69,1.17-2.52.37-4.23.61-2.23.22-3.1.57-5.29.86-6.69,1.12-1.41.21-2.03.33-2.04.38-.01.05.6.02,1.65-.05,1.06-.08,2.56-.25,4.35-.43Z"/>
        <path class="cls-6" d="M286.5,618c2.12-.25,4.24-.53,6.36-.84-1.12.07-2.8.28-6.36.84Z"/>
        <path class="cls-6" d="M307.91,614.5l-5.01.98-3.34.61c-2.23.38-4.46.76-6.7,1.07,1.79-.1,2.01.09,6.16-.95-.53.19-.14.13,1.09-.11,1.56-.32,4.2-.86,7.8-1.6Z"/>
        <path class="cls-6" d="M312.39,623.29c.36,1.39.73,2.84,1.1,4.26l.07.26.03.13s.04.1-.02.1l-.54.13c-.36.08-.71.17-1.06.25-.7.16-1.38.32-2.04.48-1.18.27-2.27.53-3.21.74-.65.14-1.19.25-1.58.34-.78.16-.96.16-.18-.08.39-.11,1.02-.29,1.94-.56,1.35-.36,3.12-.83,5.38-1.42-2.09.53-4.02,1.01-5.81,1.46-1.26.32-2.41.63-3.47.84-2.12.46-3.83.84-5.14,1.12-2.63.55-3.68.74-3.23.75.45-.01,2.4-.23,5.7-.9,1.65-.34,3.66-.65,5.96-1.26,1.68-.42,3.48-.86,5.4-1.34.54-.13,1.08-.27,1.64-.41.12-.04.31-.05.38-.12l-.11-.42c-.08-.28-.15-.56-.23-.85-.31-1.13-.63-2.3-.96-3.5Z"/>
        <path class="cls-6" d="M252.18,633.64c-3.13-.03-6.25-.26-9.38-.38-2.71.02-5.41-.1-8.12-.14,4.05.2,18.07.86,17.5.52Z"/>
        <path class="cls-6" d="M221.23,616.88c-.39.04.63.24,1.87.48,1.24.21,2.69.45,3.14.59,3.04.22,6.09.36,9.14.49-4.69-.36-13.56-1.22-14.15-1.56Z"/>
        <path class="cls-6" d="M226.24,617.95c-4.56-.28-9.11-.71-13.66-1.16,12.16,1.46,14.42,1.35,13.66,1.16Z"/>
        <path class="cls-6" d="M284.38,619.01c3.73-.45,7.45-.97,11.15-1.58,1.85-.31,3.7-.62,5.54-.98l2.96-.57,3.97-.81-4.71.95-3.29.61c-2.2.4-4.4.76-6.62,1.1-4.42.68-8.87,1.2-13.33,1.67l4.33-.39Z"/>
        <path class="cls-6" d="M169.87,607.81c2.53.51,5.06,1.05,7.6,1.5-4.52-.85-9.01-1.85-13.49-2.9l5.89,1.4Z"/>
        <path class="cls-6" d="M137,597.2c5.4,1.85-7.08-3.37-1.41-1.29-8.68-3.45-15.95-6.75-22.35-9.99,6.75,3.54,14.04,7.15,23.76,11.28Z"/>
        <path class="cls-6" d="M102.7,580.08c3.26,1.96,6.69,3.92,10.54,5.84-3.6-1.86-7.05-3.85-10.54-5.84Z"/>
        <path class="cls-6" d="M189.54,613.06c-1.02-.31-2.99-.87-10.45-2.64,1.71.55,3.44,1.04,5.17,1.57,1.61.35,3.44.69,5.29,1.07Z"/>
        <path class="cls-6" d="M184.43,612.04l-.18-.05c-2.86-.61-5.28-1.15-7.18-1.61-1.91-.44-3.32-.79-4.16-1.01.72.19,1.95.5,3.82.93,1.87.46,4.39,1.03,7.7,1.74Z"/>
        <path class="cls-6" d="M190.87,613.32c-.49-.1-.85-.17-1.33-.26.5.14.8.22,1.33.26Z"/>
        <path class="cls-6" d="M248.43,619.84c-8.06.12-24.89-.76-8.64.57,2.9-.03,2.02-.19,1.94-.33-.08-.16.63-.2,6.7-.24Z"/>
        <path class="cls-6" d="M197.37,615.02c4.78.85,9.59,1.57,14.41,2.23-.27-.15-2.85-.65,1.12-.26-5.18-.56-10.37-1.18-15.53-1.97Z"/>
        <path class="cls-6" d="M190.32,613.9c2.35.38,4.7.78,7.05,1.12-1.78-.29-3.54-.65-5.31-.98l-1.74-.14Z"/>
        <path class="cls-6" d="M124.19,592.31c-5.73-2.5-11.85-5.61-18.46-9.6,7.02,4.38,14.66,8.32,22.1,11.65.55.18,1.67.57,1.63.47-.02-.05-.33-.21-1.14-.6-.81-.39-2.11-1-4.14-1.92Z"/>
        <path class="cls-6" d="M152.85,603.65c-.41-.13-.94-.29-1.33-.42.8.3,1.45.53,1.33.42Z"/>
        <path class="cls-6" d="M56.09,527.75c.12.4.23.74.36,1.15.06.08.1.13.17.23l-.53-1.39Z"/>
        <path class="cls-6" d="M129.07,595c2.85,1.27,5.15,2.24,7.17,3,2.01.79,3.74,1.37,5.43,1.93-4.4-1.57-8.98-3.44-13.84-5.57-.49-.16-.6-.16,1.24.64Z"/>
        <path class="cls-6" d="M85.67,567.69c2.36,2.18,5.18,4.51,8.22,6.86-2.46-1.98-7.34-6.14-8.22-6.86Z"/>
        <path class="cls-6" d="M149.56,602.46c.3.09.57.18.89.28-1.91-.73-1.69-.61-.89-.28Z"/>
        <path class="cls-6" d="M149.56,602.46c-3.06-.99-5.48-1.71-7.88-2.53,3.57,1.3,6.92,2.42,9.84,3.31-.72-.27-1.45-.56-1.96-.77Z"/>
        <path class="cls-6" d="M48.12,505.94c.15.34.33,1.56.69,3.46.19.95.4,2.07.65,3.32.24,1.25.61,2.62.93,4.1.31,1.49.82,3.02,1.25,4.65.44,1.63,1.05,3.27,1.58,4.98.62,1.67,1.23,3.39,1.92,5.08.73,1.67,1.37,3.38,2.16,4.98,1.61,3.13,2.84,4.81,3.42,5.53.61.71.68.41.37-.59-.65-2-2.79-6.87-4.65-12.57-.16-.17-.27-.23-1.01-1.9-.4-.82-.83-2.09-1.51-3.98-.36-.94-.68-2.06-1.06-3.36-.19-.65-.39-1.35-.61-2.1-.18-.76-.37-1.57-.57-2.43.11.61.26,1.56.51,2.71.28,1.15.62,2.51.98,3.96.44,1.44.9,2.98,1.36,4.5.54,1.5,1.08,2.98,1.57,4.34.55,1.34,1.05,2.56,1.45,3.54.41.98.77,1.71.92,2.13.34.82-.05.36-1.42-2.34-.49-1.08-.95-2.08-1.37-3.01-.41-.94-.73-1.82-1.05-2.63-.66-1.61-1.11-3.01-1.49-4.2-.81-2.36-1.13-3.98-1.46-5.27-.33-1.29-.45-2.32-.67-3.58-.11-.63-.23-1.31-.37-2.13-.11-.82-.23-1.76-.38-2.91.19,1.95,0,1.45-.39-.34-.09-.45-.22-.98-.32-1.57-.09-.59-.18-1.24-.29-1.94-.09-.59-.18-1.21-.28-1.86-.09-.66-.14-1.37-.21-2.09-.07-.74-.14-1.49-.21-2.23-.06-.76-.08-1.53-.12-2.29-.04-.78-.08-1.54-.11-2.24,0-.18-.02-.36-.03-.54v-.13s.03.04.05.06l.12.15c.16.19.31.38.45.55,1.15,1.37,1.87,2.12,1.14.85l-1.28-1.69-.63-.84-.31-.42s-.07-.11-.06-.06v.14s0,.28,0,.28l.09,4.47c.16,2.94.35,5.79.75,8.55-.04.17-.27-1.26-.44-2.23-.17-.95-.29-1.43-.08,1.11Z"/>
        <path class="cls-6" d="M69.9,552.12c1.2,1.53,2.5,2.98,3.77,4.46-1.08-1.27-2.04-2.48-2.99-3.66-.9-1.22-1.78-2.42-2.7-3.68-.85-1.3-1.76-2.64-2.69-4.15-.88-1.54-1.92-3.17-2.89-5.12-2.48-4.12-3.71-6.76-4.51-8.36-.81-1.59-1.1-2.2-1.28-2.48,1.78,4.42,3.9,8.7,6.33,12.8,2.47,4.08,5.24,7.99,8.26,11.7-.45-.49-.88-1-1.3-1.52Z"/>
        <path class="cls-6" d="M93.06,574.25c-1.97-1.19-5.75-3.95-8.12-5.84-2.38-1.87-3.53-2.65-.41.37,3.28,2.83,5.62,4.59,7.34,5.83,1.69,1.26,2.8,1.95,3.71,2.54,1.83,1.16,2.95,1.81,7.35,4.52-5.91-3.73-8.26-5.58-8.98-6.07-.7-.52.34.17,1.58.98,1.24.82,2.68,1.76,2.81,1.75.06,0-.23-.21-1.02-.82-.79-.62-2.14-1.55-4.13-3.08,4.44,3.18,8.55,5.89,12.53,8.28-4.27-2.64-8.22-5.42-11.84-8.15.2.16.33.27.5.4l.11.07h-.03c.94.72,1.25.98.16.17-.08-.05-.35-.24-.48-.33-.19-.07-.63-.33-1.1-.63-6.36-4.93-.94-.85,1.1.63.09.04.28.15.31.14-.02-.02-.05-.04-.08-.06-3.74-2.73-7.4-5.58-10.87-8.64-3.45-3.08-6.76-6.31-9.85-9.74.98,1.09,2,2.27,3.19,3.51,1.22,1.21,2.48,2.6,4.04,4.01,3.03,2.91,6.91,6.25,12.16,10.15Z"/>
        <path class="cls-6" d="M224.71,620.31c-.87-.11-.83-.14-.89-.18-1.82-.12-2.52-.13.89.18Z"/>
        <path class="cls-6" d="M213.18,618.83c2.05.17,3.76.24,10.4.93,5.75.63-.05.2.24.37,2.01.12,5.52.35,6.97.34,1.44,0,.81-.09-5.46-.73l-1.99-.11c-5.65-.6-12.07-1.55-16.82-2.38-4.74-.85-7.82-1.51-6.84-1.39,3.21.9,6.05,1.65,13.51,2.97Z"/>
        <path class="cls-6" d="M149.27,603.77c-7.43-2.43-14.75-5.17-21.91-8.3,1.78.88,3.6,1.69,5.41,2.54l5.48,2.4-.48-.43c6.21,2.44,8.72,3.19,9.83,3.52,1.11.31.87.09,1.68.27Z"/>
        <path class="cls-6" d="M55.38,525.22c.44.92.99,1.79,1.48,2.68-.93-1.99-1.67-4.05-2.46-6.11-.67-2.09-1.43-4.17-1.95-6.32.75,3.31,1.79,6.56,2.93,9.75Z"/>
        <path class="cls-6" d="M50.88,502.69c.15.48.3.91.46,1.31l-.07-.66-.04-.35s.08.06.12.09l.6.64-.69-1.07-.19-.29-.09-.15s-.03-.06-.04-.06v.06s-.05.47-.05.47Z"/>
        <path class="cls-6" d="M281.74,764.88c1.86-1.32,3.77-2.56,5.58-3.94-2.61,1.91-4.35,3.04-5.58,3.94Z"/>
        <path class="cls-6" d="M237.11,785.24l-1.12.49c2.18-.67,3.06-.98,1.12-.49Z"/>
        <path class="cls-6" d="M485.93,655.15c2.97-9.64,6.45-20.36,5.71-19.3l-1.22,2.88c-1.75,6.82-3.2,12.02-4.48,16.42Z"/>
        <path class="cls-6" d="M380.55,780.37c.96.04,1.96.09,2.95.13l5.45-.34.41-1.21-.44,1.17-8.37.25Z"/>
        <path class="cls-6" d="M373.44,782.17l-13.29-.28c2.99.1,7.26.19,13.29.28Z"/>
        <path class="cls-6" d="M198.67,749.08c1.31-.1,2.63-.11,3.93-.27l3.92-.52c-1.54.12-2.79.22-3.82.3-1.03.11-1.83.05-2.45.08-1.24.03-1.74.06-1.9.11-.31.08.81.19.32.3Z"/>
        <path class="cls-6" d="M332.97,595.27c1.5.03,2.94.05,4.3.08.31,0,.62.01.92.02.12,0,.23.01.35.02.22.01.43.02.63.03.05.22.1.44.15.66l.07.31c.07.27.14.55.21.82.3,1.17.59,2.29.87,3.37.57,2.17,1.1,4.19,1.61,6.12-.61-2.51-1.18-4.91-1.72-7.12-.27-1.11-.52-2.18-.77-3.19-.09-.42-.17-.82-.25-1.2-.39-.02-.76-.03-1.1-.05-.78,0-1.49,0-2.14,0-1.38.01-2.44.06-3.15.15Z"/>
        <path class="cls-6" d="M267.06,778.81c3.75-2.09,5.32-3.03,5.16-3.06-3.85,2.15-6.02,3.4-5.16,3.06Z"/>
        <path class="cls-6" d="M348.61,630.94c-.37-1.49-.72-2.95-1.1-4.46-1.72-6.12-3.44-12.28-5.43-19.79,1.83,7.52,4.02,16.11,6.53,24.25Z"/>
        <path class="cls-6" d="M239.87,664.47c.71-.07,1.57-.15,2.22-.21.21-.08-.78.03-2.22.21Z"/>
        <path class="cls-6" d="M119.08,637.27c2.49,1.29,6.67,3.16,10.67,4.77-1.94-.82-5.23-2.1-10.67-4.77Z"/>
        <path class="cls-6" d="M145.45,564.02c-6.13-2.27-.99-.32,0,0h0Z"/>
        <path class="cls-6" d="M116.95,550c1.27.54,2.25.94,2.44.92-.53-.13-1.38-.46-2.44-.92Z"/>
        <path class="cls-6" d="M368.01,692.66c.05.18.09.33.14.54-.42-1.89-.35-1.56-.14-.54Z"/>
        <path class="cls-6" d="M136.36,560.26c2.26.96,4.85,2.1,7.73,3.18-.63-.25-1.53-.61-2.8-1.11-1.26-.53-2.87-1.2-4.93-2.07Z"/>
        <path class="cls-6" d="M137.51,560.95c-2.08-.86-3.72-1.54-5.28-2.19-.79-.26-.14.1,5.28,2.19Z"/>
        <path class="cls-6" d="M154.01,567.1c-3.54-1.19-6.79-2.45-9.92-3.66,1.19.48,1.69.69,1.36.58,1.8.66,4.32,1.64,8.56,3.08Z"/>
        <path class="cls-6" d="M205.88,707.19c.43-.03.92-.07,1.38-.11,3.23-.42,4.13-.6,3.6-.53-.53.07-2.48.32-4.98.63Z"/>
        <path class="cls-6" d="M524.78,656.32c.07-.3.11-.45.17-.72-.08.29-.19.66-.27.92l.09-.2Z"/>
        <path class="cls-6" d="M518.96,678.89c2.09-9.72,3.64-15.15,5.73-22.37l-3.24,7.11-2.49,15.26Z"/>
        <path class="cls-6" d="M307.98,737.65c4.25-3.52,8.32-7.25,12.31-11.07-6.78,7.36-13.28,13.09-16.46,15.81-3.16,2.75-2.9,2.65,3.27-2.16.21-.66,3.4-3.59,7.84-7.92,4.42-4.33,10.07-10.09,15.36-16.16l.5-.58.37-.46.19-.23s.06.16.09.24c.05.18.11.36.16.54.15.5.29.98.43,1.44,0,.09-.09.14-.13.23-.12.16-.24.31-.36.46-.5.63-.99,1.24-1.46,1.83-1.87,2.37-3.44,4.4-4.63,5.85-1.17,1.47-1.87,2.45-1.93,2.78-2.39,2.65-4.97,5.11-7.49,7.62,2.1-2.23,2.43-2.58,4.5-4.78-7.35,7.33-10.04,10.06-13.15,13.48-1.62,1.64-3.37,3.42-5.98,5.89-1.33,1.21-2.92,2.53-4.81,4.11-.95.78-1.95,1.65-3.1,2.51-1.16.85-2.4,1.77-3.75,2.76-.95.68-1.85,1.34-2.71,1.96-.87.6-1.72,1.12-2.48,1.62-1.53.99-2.79,1.78-3.64,2.31-1.7,1.04-1.78.99.81-.85l-2.13,1.48c-.71.5-1.46.93-2.18,1.39l-4.39,2.75c-1.44.96-3,1.71-4.49,2.58-1.51.83-3.01,1.7-4.54,2.5-5.48,2.5-4.21,1.73,1.18-.87-9.37,4.78-19.21,8.63-29.4,11.12l.22-.1c-1.07.34-2.48.79-4.11,1.11-.81.18-1.67.37-2.55.57-.49.11-.99.22-1.49.33-.69.15-1.39.29-2.1.39-2.55.41-5.11.82-7.47,1.19-1.12.18-2.19.34-3.19.5l-.36.06c-.09.03-.34.01-.13.11.22.15.43.3.64.44.41.28.81.55,1.18.81,4.29,3.19,3.16,2.43,1.07.97-1.05-.73-2.32-1.62-3.18-2.21-.06-.04-.11-.07-.16-.11l-.08-.05s-.03-.02-.03-.02h.04c.1-.02.19-.04.27-.05.15-.03.27-.05.34-.07.13-.03.04-.04-.38,0l-.37.06h-.09s.04.05.06.07l.17.12.67.46,1.33.92,2.63,1.83,1.3.9,1.33.83,2.64,1.64c.88.52,1.72,1.14,2.64,1.56l2.09,1.01c.69.32,1.35.69,2.06.96l2.12.82c3.37,1.56,1.55,1.01-2.63-.56-1-.48-2.15-1.03-3.39-1.62-.18-.09-.36-.18-.54-.26-.21-.1-.44-.21-.67-.35-.44-.27-.88-.55-1.33-.83-.9-.57-1.82-1.16-2.76-1.75-1.91-1.16-3.81-2.53-5.72-3.9l-1.43-1.02-.72-.51-.36-.26-.18-.13-.09-.06s-.09-.05-.03-.05c1.14-.16,2.27-.31,3.4-.47-.85.08-1.67.16-2.46.23-.4.04-.8.08-1.19.12h-.15s-.07.02-.07.02l.05.04.19.15.37.3c1.03.81,2,1.57,2.92,2.28.96.73,1.88,1.46,2.81,2.11.96.64,1.87,1.26,2.76,1.86.92.6,1.81,1.19,2.69,1.78.82.6,2.02,1.18,2.48,1.39.62.3,1.26.61,1.92.93.66.32,1.33.65,2.09.91.74.28,1.52.58,2.35.89.41.16.84.32,1.28.49.45.13.92.27,1.41.41.97.29,2,.59,3.11.92,1.13.24,2.34.51,3.65.79,5.23.97,12.21,1.74,21.43.23-5.71,1.11-11.62,1.42-17.46.78,5.59,1.06,12.04,1.08,19.27-.31,3.58-.8,7.42-1.76,11.37-3.31,2.01-.68,3.99-1.63,6.1-2.51,2.04-1.01,4.2-1.99,6.33-3.21-.53.25-1.44.78-2.67,1.36-1.24.56-2.72,1.31-4.38,2.01-1.68.66-3.44,1.46-5.28,2.04-.91.31-1.81.61-2.68.9-.89.24-1.76.48-2.58.7-.82.21-1.59.44-2.31.58-.72.13-1.37.25-1.94.36-1.13.2-1.9.31-2.17.3-.27-.02-.02-.13.89-.42.46-.14,1.08-.32,1.89-.55.4-.11.86-.23,1.36-.37.5-.15,1.03-.34,1.62-.53,1.34-.41,2.81-.79,4.33-1.4.77-.29,1.57-.59,2.4-.9.83-.32,1.67-.73,2.55-1.11,3.54-1.56,7.49-3.73,11.89-6.66.16.17,2.46-1.1,5.9-3.54,3.43-2.45,8-6.06,12.72-10.44-.07.36-.13.72-.22,1.07,2.53-2.41,4.34-4.21,5.68-5.68,1.37-1.44,2.3-2.52,3.1-3.48,1.62-1.9,2.69-3.32,5.27-6.48,5.07-5.84,7.92-9.54,9.99-11.98,1.01-1.24,1.81-2.18,2.51-2.97.35-.4.67-.77.98-1.12.15-.17.29-.33.44-.5l.13-.05c.3-.41.46-.67.58-.88.06-.1.1-.19.13-.26.02.01.03,0,.04-.04.07-.39-.11-.23-.39-.03-.26.2-.65.55-.6.3.03-.13.19-.43.53-1.03.18-.3.4-.67.68-1.12.09-.22.1.07.14.15.04.13.08.27.12.41.08.29.17.6.27.94.12.5.24.98.36,1.46.21.82.42,1.63.63,2.42,0,.05.05.11.02.16l-.1.14-.2.28c-.29.41-.58.83-.87,1.23-.66.95-1.32,1.88-1.96,2.81-1.34,1.83-2.66,3.63-3.99,5.44-1.36,1.77-2.73,3.54-4.11,5.34-5.63,7.1-11.9,14.36-20.65,22.64-1.3,1.19-2.31,1.98-3.01,2.56-.7.57-1.12.89-1.33,1.04-.42.29,0-.13.63-.73,1.27-1.2,3.37-3.14,1.41-1.56-1.53,1.4-3.02,2.86-4.59,4.22-1.58,1.34-3.12,2.75-4.75,4.04-2.47,1.79-1.77,1.08-1.41.72-2.08,1.6-3.16,2.43-3.82,2.94-.65.52-.85.75-1.21,1.08-.36.33-.87.77-2.16,1.71-.65.45-1.51,1-2.64,1.72-1.13.72-2.52,1.63-4.34,2.61-.45.34-1.26.84-2.37,1.47-.3.16-.52.31-.94.51-.41.2-.84.4-1.3.62-.92.43-1.92.89-3,1.39-2.2.99-4.7,2.12-7.44,3.35-.35.16-.7.31-1.06.47l-.27.12-.13.06s.06.03.09.05l.54.21c.73.28,1.47.56,2.22.85,1.53.6,3.06,1.11,4.7,1.71.8.3,1.73.52,2.61.78.9.25,1.8.55,2.76.76.73.16,1.48.32,2.22.48.7.17,1.43.25,2.15.38,2.89.48,5.89.7,8.87.66,5.99-.03,11.91-1.26,16.88-3.16,5.02-1.59-2.27,1.22-.69.9,6.99-2.44,11.5-5.18,14.92-7.41,3.4-2.27,5.73-4.1,7.84-5.91,2.12-1.8,4.03-3.6,6.39-6.05,2.35-2.45,5.15-5.57,8.71-10.26,1.09-1.27,2.11-2.59,3.16-3.9l1.52-2c.25-.33.51-.66.75-1l.62-.85.47-.63c.07-.09.16-.24.22-.27.03.05,0,.16.08.16h.2s1.96.06,1.96.06l4.97.1c-14.6-.48,4.05-1.05,20.4-1.52-5.18-.22-9.61-.41-12.58-.53l20.57-.28,1.68-4.24c.65-1.44.77-1.53.56-.75-.1.39-.29.99-.54,1.75-.25.74-.55,1.64-.88,2.63.62-1.64,1.2-3.21,1.65-4.42,3.77-8.53,2.27-3.92.06,2.39-.59,1.29-1.18,2.57-1.74,3.81-1.99-.08-3.93-.16-5.83-.23-6.44.39-12.47.82-11.13,1.19,1.7-.07,4.96-.14,8.55-.17-1.68.11-2.76.2-1.98.26.44.03,1.34.02,2.67-.03,1.36-.05,3.14-.12,5.33-.21l3.11.27,1.18-2.29.31-.6.16-.31.12-.22.46-.82.29-1.44,13.4-31.38c5.17-13.83,9.92-26.53,15.96-42.71.84,2,1.71,4.07,2.62,6.22,1.06,2.59,2.16,5.26,3.3,8.05,2.29,5.7,4.76,11.84,7.45,18.55-3.96-8.77-1.54-1.62-2.31-1.88-1.18-3.72-3.01-8.48-5.19-13.96-1.1-2.73-2.28-5.65-3.52-8.7-.76-1.83-1.56-3.73-2.38-5.7-.53,1.36-1.08,2.75-1.63,4.15-.88,2.14-1.77,4.3-2.66,6.46,1.01-2.42,1.73-4.09,2.23-5.2.05-.11.1-.21.14-.31.03-.06.06-.12.09-.18.06-.1.11-.19.15-.27.08-.14.14-.22.18-.25.07-.05.07.09.03.3-.02.11-.05.23-.09.37-.02.07-.04.13-.06.2,0,.02-.03.09-.06.17l-.09.23,1.76-4.71,1.19,2.76.64,1.51,1.22,2.98,4.86,11.94c-.76-.57,2.4,7.23,5.59,16.03-.81-3.48,1.76,2.68,5.22,11.4,1.72,4.36,3.69,9.35,5.56,14.1.94,2.37,1.86,4.68,2.7,6.83.9,2.22,1.72,4.27,2.43,6.02.03.32-.05.33-.36-.25-.13-.25-.31-.62-.55-1.12-.2-.43-.45-.98-.75-1.66-1.19-2.74-3.17-7.67-6.35-15.98,1.58,4.59,3,8.32,4.35,11.62.67,1.65,1.33,3.19,1.97,4.68.79,1.82,1.54,3.58,2.3,5.34,1.12-.04,2.24-.08,3.37-.12.83-.04,1.67-.07,2.52-.11,1.64-.07,3.32-.13,5.11-.17,3.58-.08,7.59-.08,12.46.08-4.34,0-6.68-.04-8.4.13,2.72-.08,6.5-.12,10.44-.13,4.28.01,8.75.03,12.43.04.52-1.81.98-3.45,1.38-4.85.34-1.12.62-2.05.82-2.71.42-1.32.56-1.59.27-.27l-1.14,4.21c7.72-27.83,23.11-84.65,23.42-89.03.18-.25,0,3.91-.3,5.64l10.78-50.36c-.49,4.56,5.77-11.76-.12,11.41,1.91-6.59,4.26-14.75,7.82-28.77-1.33,4.49-4.09,10.98-2.47,4.79,5.41-16.72,3.63-11.65,10-32.34-.81,2.74-1.14,3.07-1.04,1.77.05-.65.2-1.68.46-3.07.35-1.73.79-3.71,1.32-5.88-1.08.02-2.21.05-3.39.07-1.1,0-2.25.01-3.43.02.87-.09.63-.37.69-.64.04-.28.54-.55,3.65-.61l-2.61.07-2.05.07-3.45.14-6.9.28-13.8.56c6.89-.2,1.22-.95-4.96-1.27.46.04.16.06-.68.07-1.17,0-3.1.01-5.53.02-1.09,4.01-2.64,9.76-4.11,15.18-1.33,4.89-2.57,9.49-3.18,11.92l3.29-11.23c-8.26,30.05-6.47,30.13-14.56,59.97.75-3.67,1.02-9.3-3.2,5.85-.56,3.05-1.68,9.28-3.29,17.5-.81,4.11-1.74,8.72-2.79,13.68-.27,1.24-.54,2.5-.81,3.78-.34,1.5-.69,3.03-1.04,4.58-.83,3.48-1.68,7.06-2.55,10.7-1.75-4.06-3.7-8.71-5.72-13.63l-1.66-5.07-8.09-19.36c1.61,3.38,4,8.53,6.77,14.54,1.38,3.01,2.86,6.23,4.38,9.55,1.51,3.29,2.86,6.18,4,8.56.55-2.58,1.1-5.14,1.64-7.65.36-1.85,1.08-4.99,1.66-7.59,1.21-5.33,2.33-10.26,3.28-14.45-1.64,5.6-1.94,6.35-2.4,7.82-.23.73-.5,1.65-.99,3.43-.47,1.76-1.18,4.37-2.3,8.51-.23.58-.3.55-.29.29,0-.06.01-.15.02-.24.02-.13,0-.09.1-.53.17-.69.37-1.53.59-2.45.91-3.68,2.22-8.72,2.88-11.21l-3.44,12.56-.5,1.8-.23.79-.44,1.5-.65-1.72-.3-.81-1.14-2.92c.04,1.93-12.1-28.66-12.05-27.01l8.47,20.4,4.11,9.87,1.65,3.68s0,0,0,0c.09.68-.04.91-.6.05-.28-.43-.67-1.13-1.19-2.14-.13-.26-.27-.54-.41-.82-.07-.15-.15-.3-.22-.46l-.12-.25-.18-.39c-.47-1.05-.96-2.16-1.48-3.33-4.12-9.35-9.55-22.28-14.8-35.67-2.46-6.91,3.13,4.65,3.12,4.01-1.59-3.39-10.5-25.25-11.32-27.78l4.84,11.23c-2.84-7.5-5.46-13.5-8.19-19.9-1.36-3.2-2.75-6.49-4.21-10.12-.73-1.82-1.47-3.71-2.24-5.73-.19-.51-.39-1.02-.59-1.54-.26-.62-.56-1.22-.93-1.8-.74-1.16-1.8-2.25-3.12-3.03-1.84-1.05-4.53-1.61-7.23-.92-1.34.34-2.68.99-3.81,1.95-1.12.95-2.01,2.25-2.5,3.51-1.7,4.06-3.03,7.3-3.05,7.93,1.13-2.47,2.17-4.4,3.06-5.8.45-.71.84-1.23,1.22-1.72.37-.48.75-.78,1.05-.9.6-.26.84.06.82.72,0,.34-.03.75-.11,1.35-.1.61-.27,1.36-.52,2.23-.87,2.17-12.97,32.46-16,39.44-4.42,10.05,4.43-15.88.67-7.33.03.44-1.88,6.18-2.7,8.56-2.6,6.48.48-2.9-4.77,11.33-.25,2.61-10.9,28.88-1.98,6.92-2.52,6.98-3.94,10.66-5.49,14.64-.77,1.99-1.58,4.05-2.58,6.64-.83,2.2-1.83,4.83-3.15,8.29.75-1.39.23,1.03-1.83,7.46-.79-2.24-1.88-5.63-3.11-9.68-1.21-3.97-2.41-8-3.45-11.69.4.8-.25-2.48-.58-4.07-7.85-29.41-11.79-45.27-19.16-72.68-.52-2.57-3.88-15.85-2.09-10.29-.6-1.95-1.17-3.83-1.91-6.26-.36-1.22-.76-2.58-1.22-4.16-.47-1.68-1-3.6-1.62-5.84-.13-.54-.24-1.04-.31-1.32-1.65-.06-2.74-.1-3.39-.13-.6-.03-.72-.06-.62-.08.1-.04,1.94-.06,4.23-.08,1.06,3.84,1.95,7.1,2.6,9.3.62,2.1.86,2.59.07-1.18-.12-.17-.4-.97-.8-2.25-.2-.64-.43-1.4-.69-2.25-.33-1.12-.69-2.37-1.08-3.73-7.86.12-20.01.32-28.29.45,1.33.21,5.23.29,10.27.29,2.52-.01,5.32-.03,8.24-.05,3.07-.04,6.24-.08,9.35-.12,1.48,5.14,2.89,10.04,3.98,13.81-.19.07-.72-1.11-1.54-3.35-.41-1.12-.88-2.51-1.42-4.14-.51-1.57-1.09-3.37-1.74-5.38-1.05.05-2.15.09-3.32.14-1.25.04-2.57.09-3.94.14-2.74.08-5.71.16-8.88.25-6.33.16-13.45.29-21.09.39-.74.02-1.44,0-2.11-.05-.67-.04-1.3-.08-1.91-.11-1.2-.07-2.28-.14-3.23-.2-1.91-.11-3.34-.25-4.4-.35-2.12-.21-2.78-.33-2.84-.41-.11-.16,2.22-.13.17-.23-11.05-.96-18.91-1.76-25.07-2.42-3.08-.31-5.74-.59-8.16-.86-2.42-.27-4.6-.46-6.71-.72-4.23-.5-8.23-.96-13.43-1.81-2.6-.4-5.5-.92-8.87-1.57-3.38-.62-7.22-1.47-11.72-2.46-14.18-3.65-.42-1.18-3.51-2.25,9.41,1.93,16.64,3.38,23.12,4.63,6.48,1.24,12.22,2.29,18.67,3.2-2.64-.39-5.28-.87-7.91-1.31-2.64-.44-5.27-.91-7.89-1.42,6.05.86,18.75,2.66,25.67,3.64-6.03-1.01-24.59-3.42-45.58-7.83-10.5-2.17-21.6-4.8-32.08-7.67-10.48-2.85-20.3-6.03-28.34-8.88-5.81-1.75-15.66-5.33-11.1-3.37,1.69.61,3.38,1.26,5.08,1.85l5.12,1.75c4.62,1.84-.23.31-4.64-1.1-4.39-1.45-8.31-2.87-1.93-.35-6.86-2.4-14.15-4.94-21.94-8.27-7.8-3.29-16.17-7.18-25.06-12.33-1.03-.8-2.06-1.58-3.05-2.43.12.22,3,1.93,6.51,3.89,1.74,1.01,3.67,2.01,5.49,2.91,1.81.91,3.51,1.75,4.82,2.36-1.94-.9-4.63-2.29-7.72-3.92-1.52-.87-3.13-1.79-4.8-2.74-1.67-.95-3.39-1.94-5.07-3.01-1.69-1.04-3.39-2.09-5.05-3.11-1.63-1.06-3.22-2.1-4.72-3.08-3.06-1.89-5.63-3.76-7.68-4.93,1.92,1.43,3.8,2.93,5.77,4.3l5.92,4.1c-6.26-3.81-13.21-8.2-20.07-13.53-6.83-5.36-13.61-11.58-19.5-18.67.62.85,1.12,1.54,1.54,2.12.46.54.84.98,1.16,1.36.66.75,1.12,1.24,1.69,1.84.57.6,1.23,1.31,2.28,2.5,1.1,1.14,2.63,2.71,4.88,5.1-3.79-4.26,4.56,4.09,13.36,10.49,2.19,1.6,4.38,3.12,6.27,4.46,1.9,1.33,3.61,2.35,4.76,3.08,2.32,1.43,2.57,1.46-1.09-1.19,1.34.99,2.64,1.94,3.93,2.85,1.29.9,2.61,1.71,3.89,2.54,1.3.81,2.58,1.62,3.88,2.43,1.33.75,2.66,1.51,4.03,2.29,1.37.76,2.75,1.58,4.21,2.35,1.46.77,2.97,1.57,4.55,2.4,3.13,1.72,6.63,3.38,10.48,5.41-.2-.21-1.56-.95-1.13-.82.22.06.86.37,2.35,1.01,1.48.65,3.79,1.66,7.29,3.2.66.23,2.2.76,3.18,1.1.43.18.58.25.95.4-.28-.12-.49-.21-.77-.34.63.22.68.24-.29-.13-3.36-1.41-5.99-2.76-7.05-3.32,1.79.64,4.5,1.78,7.76,2.99,1.62.62,3.36,1.3,5.17,1.99,1.82.66,3.7,1.35,5.59,2.03,7.55,2.76,15.28,5.22,19.22,6.35,4.29,1.44,3.38,1.16,1.96.82-1.41-.38-3.32-.91-1-.04,3.94,1.09,7.88,2.17,11.83,3.18,1.02.82,23.01,7.02,2.35,1.7l4.62,1.3,4.65,1.22,4.65,1.21,4.67,1.13c2.73.73,5.73,1.5,8.85,2.21,3.11.74,6.33,1.48,9.52,2.13,1.59.33,3.17.66,4.72.98,1.55.29,3.07.57,4.54.85,2.93.54,5.66,1.02,8.04,1.36,8.9,1.71,22.67,3.01,14.81,2.25,9.94,1.36,19.91,2.5,29.9,3.38l.27.14c4.84.49,9.73.86,14.69,1.21,2.5.14,5.01.29,7.53.43,2.5-.02,5.01-.04,7.54-.06,9.56-.05,19.33-.11,29.33-.16,1.27,4.83,2.56,9.71,3.87,14.67,1.42,5.5,2.83,11.08,4.21,16.75,2.7,9.58,5.5,19.48,9.71,35.6l.47,3.24c3.45,12.3,9.6,37.17,11.41,42.36.03.18.07.36.11.55.03.13.06.26.08.39.04.17.08.34.12.51.17.7.34,1.44.52,2.22.39,1.59.82,3.33,1.28,5.21.99,3.86,2.12,8.3,3.37,13.19,2.83-7.46,6.15-16.18,9.68-25.48,2.19-5.9,4.52-12.16,6.83-18.35,4.59-12.39,9.05-24.51,12.24-32.81l-.18-.97c2.73-7.24,5.37-14.35,8.15-21.9.69-1.89,1.39-3.81,2.11-5.76.36-.98.72-1.96,1.08-2.96.17-.48.35-.96.53-1.44.13-.4.28-.65.46-.96.71-1.14,2.08-1.95,3.68-2.08,1.61-.13,3.14.42,4.22,1.69-.06-.3-.15-.61-.27-.92.59.48,1.1,1.14,1.5,1.92.18.33.41.94.62,1.44.21.53.43,1.06.65,1.61.87,2.18,1.79,4.48,2.75,6.88,1.87,4.82,3.91,10.07,6.05,15.59,4.26,11.06,8.92,23.24,13.77,35.41-.82-1.59-3.22-7.78-4.86-12.19,3.05,8.47,6.41,17.11,9.89,25.76,4.36,10.71,8.75,21.48,13.05,32.05,2.3-8.79,4.56-17.45,6.76-25.86,1.68-6.3,3.36-12.39,5.08-18.17,1.68-6.87,3.06-11.8,4.46-16.56-.16.64-.31,1.21-.43,1.7.19-.7.47-1.74.76-2.8.88-3,1.8-6.08,2.78-9.42-.87,2.83-1.7,5.55-2.38,7.92,1.41-5.27,3.5-13.27,5.5-21.13l1.36-3.21c.17-.64.3-1.15.47-1.81,2.24-7.64,1.44-6.24-.01-2.23.98-3.96,1.86-7.6,2.51-10.43,1.21-3.02,2.53-8.17,3.93-13.61.7-2.72,1.42-5.51,2.16-8.13.37-1.31.74-2.59,1.12-3.79.2-.6.39-1.19.57-1.75l.14-.42c.05-.15.1-.29.12-.32.05-.11.11-.22.16-.32.02-.19.06-.45.15-.87.2-.01.43-.03.68-.05.13,0,.27-.01.42-.02.24,0,.49-.01.74-.02,1.37-.02,2.93-.05,4.63-.07,3.39-.04,7.29-.09,11.25-.14,3.96-.06,7.96-.13,11.54-.18.9-.02,1.76-.04,2.6-.06.42-.01.83-.02,1.23-.03.26-.01.51-.02.75-.04,1-.06,1.89-.12,2.63-.16-.16.89-.25,1.6-.24,1.97-.18.23-.65,1.77.12-1.09-.52,1.81-1.03,3.62-1.55,5.42-.6,2.16-1.2,4.31-1.79,6.43-1.16,4.24-2.26,8.39-3.21,12.33l-1.6,3.54-4.4,19.26c-3.52,11.47-5.03,16.21-2.35,4.6-6.87,27.93-5.88,22.58-11.62,46.35l-.07-1.26c-2.29,8.44-5.45,22.05-7.16,27.05-1.49,4.74-3.87,13.09-6.83,23.7-2.83,10.27-6.25,22.72-9.92,36.05-10.79-.02-22.17-.03-33.44-.05-2.86-7.48-5.7-14.9-8.44-22.06-2.83-7.52-5.56-14.76-8.09-21.47,2.43,9.5-7.95-21.94-9.51-23.46-.2-.71-.5-1.65-.79-2.54-.42-1.26-.82-2.46-1.07-3.2-.26-.82-.35-1.17-.06-.58.14.3.38.83.74,1.67.28.67.66,1.57,1.15,2.74-2.21-5.62-4.24-10.8-6.09-15.53-2.58,6.23-4.91,11.86-7.08,17.11-1.52,3.64-2.93,7.02-4.29,10.28-2.71,6.54-5.17,12.67-7.71,19.7-1.37,2.61,1.71-5.22.57-2.87-.73,1.92-2.87,7.62-4.04,10.02-1.14,2.35,1.21-3.56,2.64-7.35-9.91,24.21-10.13,26.98-10.12,29.04-1.49,3.4-2.76,6.27-3.88,8.82-.57,0-1.11-.01-1.65-.02-.83,0-1.63,0-2.42,0-1.58.02-3.1.04-4.61.06-3.01.07-5.98.19-9.3.38-4.62-.26-12.31-.53,3.94-.63-2.29-.01-6.92-.04-12.6-.07-1.42,0-2.91-.01-4.44-.02-.77,0-1.54,0-2.33,0-.48,0-.95,0-1.43,0h-.43s-.46-.07-.46-.07c-.3-.05-.64-.09-.91-.15-.01-.05,0-.18-.03-.16l-.25.35-.49.71-.99,1.43-.74,1.07-.71.97c-.94,1.31-1.92,2.59-2.89,3.86-3.92,5.04-8.05,9.58-11.35,12.75-1.64,1.6-3.06,2.87-4.05,3.8-1.02.9-1.62,1.47-1.65,1.6-1.14.83-3.65,2.72-6.23,4.41-2.55,1.72-5.22,3.15-6.25,3.73-4.5,2.26-8.2,3.47-11.37,4.32-3.18.85-5.87,1.22-8.55,1.48-2.68.27-5.38.27-8.61.06-1.62-.11-3.36-.33-5.31-.64-.93-.19-2.14-.4-2.72-.54-.71-.19-1.47-.34-2.27-.58.55.21,1.14.34,1.73.51.62.19,1.08.29,2.09.5-.44-.04-.88-.08-1.32-.13-.37-.04-.74-.11-1.14-.18-.79-.13-1.62-.3-2.47-.55-.85-.23-1.74-.48-2.62-.81-.44-.16-.89-.32-1.35-.49-.11-.02,0-.04.05-.07l.17-.07.35-.15c.23-.1.47-.2.71-.3.96-.4,1.97-.82,3.03-1.26,1.09-.51,2.23-1.05,3.45-1.62.32-.15.57-.25.94-.46.37-.2.74-.4,1.12-.6.76-.41,1.54-.83,2.34-1.26,1.62-.84,3.24-1.89,4.99-2.95l-.36.31c2.05-1.15,3.8-2.34,5.41-3.38,1.62-1.02,3.01-2.03,4.26-2.93,2.53-1.76,4.39-3.27,5.91-4.46,1.53-1.17,2.62-2.16,3.55-2.96.93-.81,1.68-1.47,2.43-2.13,1.45-1.36,2.9-2.71,5.66-5.3,2.7-2.65,6.8-6.49,12.96-13.39l-1.7,1.19c.77-1.61,6.23-7.68,12.56-15.95.81-1.02,1.61-2.09,2.4-3.2.85-1.17,1.72-2.37,2.6-3.59.84-.66.24-1.59.09-2.44-.18-.72-.37-1.45-.55-2.18-.46-1.79-.93-3.59-1.4-5.4l-.72-2.76-.37-1.39-.18-.69-.09-.35-.05-.17c-.02-.05-.06.07-.09.09-1.03,1.56-2.06,3.11-3.08,4.65-1.01,1.54-2.12,3.17-3.06,4.56-.76,1.15-1.56,2.25-2.31,3.34.78-1.01,1.58-2.01,2.33-3.04l2.72-3.75c-.5.77-1.01,1.58-1.55,2.37-.49.72-1.01,1.47-1.54,2.24-1,1.38-2.09,2.82-3.25,4.31-2.36,2.94-4.98,6.03-7.75,8.98-5.5,5.95-11.45,11.39-15.75,15.23-1.91,1.63,2.84-2.77,5.22-5.35-5.41,5.25-8.52,7.76-10.1,9.18-1.62,1.37-1.74,1.61-1.67,1.71.07.1.35.07-.48.91-.41.43-1.1,1.06-2.27,1.99-.58.47-1.28,1.02-2.1,1.67-.84.63-1.83,1.32-2.98,2.14-1.79,1.05-.82.1-.95-.02-.07-.06-.4.08-1.53.72-.56.32-1.32.77-2.32,1.39-1.01.62-2.32,1.32-3.94,2.25-1.66.83-4.84,2.58-9.16,4.44-4.31,1.86-9.81,3.73-15.9,4.59-6.07.89-12.7.69-18.79-.78l-1.14-.25-1.11-.35c-.74-.23-1.47-.46-2.2-.69-.73-.2-1.42-.52-2.11-.8-.69-.29-1.37-.57-2.04-.85-.68-.26-1.31-.62-1.94-.94-.63-.33-1.24-.65-1.85-.97-.19-.11-.39-.21-.58-.31l-.35-.24c-.22-.15-.43-.31-.64-.45.31.26.67.57.99.82.11.07.21.14.3.21.16.1.3.19.43.27.25.16.43.28.5.36.14.14-.12.07-1-.31-.4-.16-.67-.28-1.13-.54-.46-.26-1.03-.57-1.72-.95-.52-.31-1.01-.7-1.54-1.07-.26-.19-.52-.38-.78-.57-.11-.09-.3-.2-.35-.28l.52-.05c1.37-.13,2.82-.27,4.32-.41.35-.05.69-.11,1.04-.16.64-.11,1.29-.22,1.94-.33,1.31-.23,2.65-.43,3.98-.69,2.64-.64,5.31-1.29,7.97-1.94,10.58-2.89,20.41-7.45,26.74-11.3,1.88-.92,2.6-1.23,2.71-1.22,1.39-.73,2.93-1.7,4.61-2.76,1.68-1.07,3.55-2.15,5.43-3.42,1.86-1.28,3.81-2.62,5.79-3.98,1.97-1.37,3.86-2.9,5.77-4.33.94-.73,1.91-1.42,2.8-2.17.89-.75,1.77-1.48,2.63-2.2,1.7-1.45,3.37-2.78,4.79-4.1,2.85-2.65,5.18-4.8,6.48-6.16,1.18-.85,2.93-2.34,5.09-4.3.54-.49,1.11-1.01,1.7-1.55.57-.57,1.16-1.16,1.77-1.78,1.21-1.24,2.51-2.58,3.88-3.98,1.39-1.38,2.69-2.97,4.11-4.55,1.38-1.6,2.87-3.2,4.25-4.94,1.4-1.75,2.83-3.52,4.26-5.3l1.5-1.85c.21-.14.03-.36,0-.54l-.16-.58-.32-1.15c-.41-1.46-.82-2.92-1.23-4.36-.42-1.49-.84-2.98-1.25-4.45l-.31-1.09-.15-.54-.08-.27-.04-.13s-.06.06-.09.09c-.49.59-.98,1.18-1.47,1.76-.96,1.15-1.91,2.29-2.85,3.41-.47.55-.93,1.1-1.39,1.65-.4.46-.8.92-1.2,1.37-1.31,1.52-2.58,2.97-3.82,4.3-1.23,1.34-2.38,2.6-3.49,3.71-1.1,1.12-2.1,2.14-3,3.02-.91.87-1.71,1.61-2.38,2.2-1.33,1.19-2.13,1.78-2.24,1.62-9.17,8.68-18.96,16.74-29.56,23.57l.74-.67c-10.14,6.55-17.53,10.04-23.19,12.52-1.43.59-2.75,1.13-3.98,1.63-1.23.51-2.41.88-3.52,1.3-2.2.86-4.25,1.4-6.27,2.05-5.45,1.07-1.51.07-1.08-.07-8.56,1.8-15.37,1.95-20.98,1.46-.7-.07-1.39-.14-2.06-.21-.67-.06-1.33-.13-1.96-.27-1.27-.24-2.48-.46-3.66-.68-1.16-.28-2.27-.62-3.37-.91-.55-.15-1.09-.3-1.62-.45-.52-.19-1.04-.39-1.55-.58-1.03-.38-2.05-.76-3.08-1.14-.99-.46-1.98-.93-2.99-1.4-.5-.24-1.02-.46-1.52-.72-.49-.29-.99-.57-1.49-.86-1-.59-2.05-1.16-3.11-1.82-1.02-.71-2.08-1.45-3.18-2.22-.28-.19-.56-.39-.84-.58-.16-.11-.25-.18-.34-.26l-.28-.23c-.39-.32-.79-.64-1.2-.97-.42-.34-.86-.7-1.3-1.06-.44-.37-.82-.76-1.26-1.17-.44-.42-.9-.86-1.37-1.3-.22-.22-.52-.48-.7-.69.29,0,.58.02.88.03,1.11.24,2.09.48,2.93.7.53,0,1.44.06,2.64.14,1.91,0,4.26.02,6.97.02.73,0,1.49.04,2.26-.02.77-.05,1.57-.1,2.39-.15,1.64-.11,3.36-.22,5.16-.33.45-.03.9-.06,1.36-.09.46-.06.92-.12,1.38-.18.93-.12,1.87-.25,2.84-.38,1.92-.27,3.92-.48,5.94-.84,2.02-.41,4.09-.82,6.2-1.25,1.05-.23,2.13-.4,3.19-.68,1.06-.28,2.13-.57,3.2-.86,2.14-.6,4.34-1.13,6.51-1.81,2.16-.73,4.33-1.46,6.52-2.2,2.21-.69,4.33-1.62,6.48-2.48l3.21-1.31c1.07-.43,2.14-.87,3.17-1.38,4.15-1.98,8.3-3.86,12.12-6.07-.28.21-.88.64-3.33,2.01,8.81-4.61,18.18-10.21,27.29-16.37,9.08-6.21,17.76-13.14,25.55-19.9,1.9-1.74,3.76-3.46,5.58-5.12.62-.57,1.23-1.14,1.84-1.7l1.07-.99.27-.25.07-.06-.02-.09-.05-.17-.19-.7c-.51-1.88-1.01-3.74-1.5-5.56-.5-1.85-1-3.67-1.48-5.46l-.18-.67c-.14.05-.34.26-.5.38-.34.29-.69.57-1.03.85-.68.57-1.35,1.12-2.02,1.68-1.25,1.03-2.47,2.04-3.67,3.03-.48.39-.95.77-1.42,1.15-.39.31-.77.62-1.14.92-6.03,4.81-10.91,8.45-13.62,10.84-7.05,4.95-14.32,9.58-21.82,13.85,7.35-4.01,10.64-6.05,11.82-6.64,1.16-.62.17.12-1.37,1.17-3.06,2.11-8.32,5.41-2.27,2.06-11.26,6.99-30.57,15.17-16.01,8.04l2.3-1.08c2.41-1.82-6.78,3.08-16.94,7.36-5.07,2.16-10.37,4.17-14.37,5.52-4,1.36-6.71,2.09-6.54,1.88-15.62,4.9-31.85,7.96-47.92,7.32-8.01-.34-15.95-1.65-23.42-4.23-7.47-2.56-14.46-6.39-20.43-11.42-2.99-2.5-5.75-5.28-8.25-8.26-.61-.76-1.26-1.48-1.83-2.27l-1.66-2.23-.9-1.34c-.28-.44-.52-.85-.78-1.27-.26-.41-.49-.84-.72-1.27l-.35-.63-.09-.16s.11.04.16.05l.35.13,1.39.5.69.25.8.25,1.6.5.4.12c.14.04.22.07.51.15l1.45.39c1.94.51,3.87,1.06,5.83,1.47,15.61,3.58,31.54,4.65,47.16,4.06-2.41-.14-4.82-.37-7.21-.55,7.25-.04,14.5-.46,21.71-1.2,2.85-.2,4.77-.3,4.05-.09-.36.12-1.38.27-3.28.51-.95.11-2.12.25-3.53.42-1.42.11-3.08.25-5.02.4,4.09-.09,10.59-.77,16.06-1.74,5.47-.93,9.94-1.97,10.14-2.11,1.87-.33,3.46-.61,4.8-.85,1.34-.26,2.42-.47,3.29-.64,1.74-.33,2.61-.47,2.84-.47.47,0-1.61.54-4.33,1.21-2.72.71-6.12,1.35-8.25,1.83-2.14.42-3.02.59-.71.22l6.23-1.18c2.07-.41,4.13-.89,6.2-1.33l-2.81.51c2.5-.6,4.42-1.1,6.17-1.61,1.75-.51,3.36-.91,5.2-1.48,3.68-1.11,8.41-2.34,17.28-5.22,11.21-3.67,5.88-1.53,10.26-3.08,0,.03.36-.09,1.39-.46,1.03-.36,2.7-1.01,5.28-2.08,8.5-3.37,16.84-7.14,24.98-11.32-3.33,1.53-6.71,2.92-10.09,4.33,10.88-5.4,22.83-11.88,11.46-6.38,1.06-.48,2.32-1.11,3.78-1.85,1.46-.73,3.11-1.58,4.89-2.57,1.79-.99,3.75-2.05,5.78-3.28,1.27-.76,2.58-1.54,3.93-2.35.18-.12.4-.21.54-.34l-.17-.63c-.11-.42-.22-.85-.34-1.28-.21-.81-.43-1.62-.65-2.45-.47-1.78-.95-3.59-1.44-5.44l-.19-.7-.09-.35-.05-.18c-.01-.06-.09.04-.14.05-.42.24-.83.49-1.25.73-.84.49-1.69.99-2.54,1.49-.82.47-1.64.94-2.47,1.42-.62.35-1.25.71-1.89,1.06-1.28.69-2.56,1.41-3.87,2.1-5.24,2.78-10.76,5.49-16.31,8-11.1,5.02-22.34,9.18-31.51,12.1-9.17,2.92-16.24,4.68-18.99,5.26-8.11,2.2-16.3,3.93-25.02,5.2-8.72,1.25-18,2.07-28.26,1.99,2.55.08,4.59.22,3.78.4-.41.1-1.52.19-3.66.23-2.13.05-5.27.01-9.7-.27,1.64-.23.43-.5-2.5-.86-2.93-.38-7.59-.9-12.82-1.92-5.23-1-11-2.51-16.16-4.42-5.17-1.88-9.68-4.18-12.63-6.09,2.69,1.61,1.29,1.02-2-.77-3.29-1.79-8.26-5.13-12.53-8.98-4.31-3.79-7.85-8.07-9.58-10.33-.91-1.1-1.36-1.71-1.3-1.49.04.24.68,1.24,2.09,3.3-2.21-2.92-3.16-4.56-3.65-5.36-.48-.81-.39-.87-.28-.81.26.1.68.59-1.93-4.26-.3-.54-.6-1.08-.9-1.62l-.43-.78-.26-.52-.53-1.07-.27-.54-.21-.48c-.27-.64-.59-1.29-.84-1.97l-.39-1.03-.2-.52-.05-.13s-.05-.1.01-.05l.23.13c.94.54,1.8,1.08,2.86,1.66.55.29,1.1.58,1.66.88l.83.44c.16.08.23.13.47.24l.71.34c1.9.88,3.78,1.85,5.73,2.68,1.96.81,3.91,1.71,5.92,2.48,8.01,3.17,16.47,5.8,25.22,7.94,17.5,4.28,36.16,6.56,55.04,6.93.69-.16-6.67-.62,2.77-.65,7.73.41,15.49.49,23.25.35,4.34-.34,6.32-.71,9.19-1.16,2.87-.43,6.64-.83,14.55-1.6-2.24.16-5.58.41.18-.46,10.68-1.38,21.35-3.37,31.9-6.06,10.55-2.68,20.99-6.08,31.11-10.38l5.09-2.17c.18-.02.04-.18.04-.29l-.1-.36-.19-.71-.39-1.42-.7-2.56-1.38-5.07-.39-1.42-.19-.71c0-.19-.17-.03-.27-.01l-.34.13-2.75,1.06-1.37.53-1.25.47-1.91.7c-1.27.47-2.56.91-3.84,1.35-2.57.88-5.16,1.72-7.76,2.5-10.42,3.16-21.06,5.69-31.82,7.65-21.52,3.89-43.5,5.67-65.33,4.87-10.91-.4-21.79-1.47-32.47-3.36-10.69-1.88-21.19-4.6-31.22-8.42,2.7,1.07,4.31,1.62,5.02,1.91.72.29.56.27-.21.05-1.53-.44-5.51-1.71-9.63-3.37,5.36,2.17-.28.36.69.99-11.12-4.58-21.72-10.52-30.74-18.32-1.35-.91-3.88-2.91-6.67-5.72-2.81-2.78-5.91-6.34-8.54-10.13-2.65-3.78-4.83-7.75-6.43-10.99-1.58-3.24-2.55-5.76-3.06-6.57,1.37,3.53,2.92,6.99,4.76,10.3-1.91-3.25-2.32-3.7-1.95-2.49.19.6.6,1.6,1.13,2.86.54,1.25,1.31,2.71,2.1,4.28,1.7,3.06,3.77,6.41,5.5,8.78.81,1.22,1.55,2.18,1.97,2.83.43.65.56.98.28.85,3.1,3.07,6.76,6.54,11.11,10,4.34,3.47,9.36,6.94,14.95,10.1,11.17,6.39,24.74,11.33,38.72,13.88,3.04.75,1.72.55.04.27-1.68-.31-3.71-.72-2.1-.21,3.56.64,7.47,1.34,12.49,2.16,5.02.82,11.15,1.74,19.16,2.54l-1.82-.06c11.26,1.02,20.96,1.28,29.92,1.21,8.96-.1,17.2-.49,25.59-1.22,8.39-.72,16.93-1.76,26.46-3.36,9.52-1.65,20.07-3.8,32.29-7.36-1.25.22-2.5.39-3.75.59,5.26-1.45,8.42-2.44,10.9-3.18,2.46-.78,4.25-1.3,6.67-2.14.36-.16.67-.29.93-.41.17-.07.18-.09.24-.12.05-.03.1-.06.14-.08.17-.1.25-.17.26-.2,0-.03-.06-.03-.21,0-.17.05-.26.06-.84.26-2,.68-5.65,1.99-9.37,3.16-7.44,2.39-15.14,4.31-9.74,2.46,3.54-.74,9.95-2.45,17.55-5.14.82-.29,1.65-.59,2.51-.9.55-.21,1.11-.41,1.68-.63.04-.03.06,0,.06.05l.03.11.06.22.12.45c.08.3.16.6.24.9.24.89.48,1.8.72,2.71l.24.92.12.46.06.23s.03.08.02.11l-.11.05c-.63.27-1.26.54-1.9.81-1.06.44-2.11.91-3.17,1.34l-3.22,1.24c-8.58,3.3-17.27,5.91-24.41,7.7-1.79.42-3.48.82-5.04,1.19-1.57.35-3.02.62-4.31.87-1.3.25-2.44.46-3.41.62-.98.14-1.78.23-2.39.28-4.06.8-5.79,1.15-6.36,1.28-.56.15.05.11.66.08,1.22-.07,2.45-.13-5.73,1.24-1.46.14-2.93.23-4.39.34-1.37.32-2.73.66-4.1.96-2.7.3-5.07.55-7.12.73-2.05.14-3.76.24-5.15.3-2.78.14-4.26.04-4.47-.06.66-.04,1.45-.1,2.32-.16.87-.09,1.8-.18,2.75-.28,1.88-.2,3.79-.41,5.2-.56-7.02.57-16.91,1.31-25.67,1.54-4.38.16-8.48.13-11.78.14-3.3-.06-5.81-.14-7.01-.2,2.65.1,5.3.25,7.95.3,2.65.03,5.3.13,7.96.09-18.05.33-37.77-1.02-57.23-4.88-9.72-1.94-19.38-4.45-28.61-7.8-4.6-1.69-9.15-3.47-13.49-5.56l-1.63-.77-.81-.38-.41-.19-.6-.33c-1.59-.88-3.18-1.75-4.77-2.63l-2.36-1.3-2.43-1.43c-1.61-.96-3.22-1.91-4.81-2.85-.21.18.31,1.29.58,2.07.31.84.62,1.68.93,2.51.61,1.69,1.26,3.27,1.89,4.87.32.8.64,1.59.95,2.38.35.75.7,1.5,1.05,2.25.35.75.7,1.49,1.04,2.23l.25.53.22.39.43.78c2.26,4.19,4.82,8.1,7.67,11.63l-1.87-2.87c2.54,3.46,4.98,6.17,7.17,8.47,2.24,2.24,4.23,4.05,6.07,5.57,3.67,3.04,6.6,5.03,9.7,6.93,3.1,1.89,6.39,3.72,11.16,5.73,1.2.49,2.49.99,3.88,1.52,1.42.47,2.92,1.06,4.58,1.53,3.31,1.05,7.19,2.02,11.78,2.9l-1.34-.21c7.38,1.32,17.31,2.36,27.49,2.45-4.7.04-.28.3,3.78.38,4.06.05,7.76.04,1.59.37,4.61-.15,8.34-.45,11.38-.73,3.05-.29,5.41-.59,7.3-.82,3.77-.52,5.63-.84,7.09-1.13,1.47-.27,2.54-.54,4.73-1.01,2.19-.49,5.5-1.2,11.36-2.67,1.84-.26,3.68-.57,5.52-.87,3.97-1.12,6.09-1.81,9.46-2.83,3.35-1.05,7.96-2.37,16.7-5.37-7.14,2.54-4.3,1.74-1.66,1.04,1.32-.34,2.58-.71,2.51-.59-.06.12-1.45.7-5.47,2.12,18.64-5.62,31.8-11.8,42.29-17.21,2.62-1.37,5.07-2.7,7.4-4,1.16-.66,2.3-1.28,3.4-1.92.78-.45,1.53-.88,2.28-1.31.29-.17.59-.34.88-.5l.21-.12.11-.06s.02.08.03.12l.12.5c.15.64.29,1.28.43,1.91l.14.62.09.47.15.83.03.19-.2.1-.39.19-.76.34c-3.63,2.51-3.66,2.72-1.78,1.7.47-.26,1.05-.59,1.74-.98.47-.27,1-.58,1.58-.91l.2-.12.1-.06s.07-.04.05-.08c-.04-.15-.08-.31-.12-.46-.08-.32-.16-.65-.25-.98-.19-.73-.39-1.49-.59-2.26l-.29-1.09-.07-.27c-.03-.08-.03-.23-.13-.12l-.48.28c-.64.38-1.27.75-1.88,1.1-.9.51-1.76,1-2.56,1.45-.86.47-1.65.9-2.33,1.28-2.77,1.49-3.97,2.1-1.78.88-3.79,1.79-.58-.02,4.8-3.2.62-.37,1.26-.76,1.93-1.16.59-.36,1.2-.74,1.82-1.12.32-.19.64-.39.96-.59.05-.05.05.02.07.06l.04.13.08.27.15.54c.21.73.41,1.46.62,2.2.21.77.43,1.54.64,2.3.1.37.2.74.3,1.1.07.11-.05.14-.13.19l-.24.15-.48.29c-1.43.87-2.79,1.69-4.02,2.43-5.33,3.08-10.03,5.43-16.94,8.52-6.91,3.06-15.92,7.13-30.4,12.45,2.87-1.08,3.06-1.17,5.91-2.3-2.71.99-5.39,1.97-8.1,2.96-2.73.94-5.45,1.97-8.3,2.88-5.67,1.92-11.74,3.67-18.66,5.16-7.57,2.53-17.98,3.77-20.12,4.83,9.32-1.55,18.55-3.63,27.65-6.18-7.72,2.22-15.25,4.26-24.18,6.03-8.93,1.73-19.29,3.23-32.55,3.48,1.03-.09,3.51-.3,6.41-.55,1.45-.11,3-.31,4.52-.46,1.52-.15,3.02-.31,4.36-.5-7.72.53-14.86,1.3-22.88,1.02,1.14-.34,9.73-.38,20.15-1.3,10.41-.89,22.59-2.96,30.9-5.13-4.07.77-12.02,2.41-17.95,3.35-5.94.91-9.8,1.3-5.57.4-6.08,1.26-13.67,1.92-22.3,2.03-8.64.08-18.32-.29-28.68-1.33l1.42-.28c-3.26-.37-10.05-1.13-15.93-2.58,1.81.28,3.6.6,5.41.86l5.43.66c-2.07-.3-4.13-.62-6.16-.99-2.01-.43-4.02-.82-5.99-1.33-.98-.26-1.96-.53-2.93-.79l-1.46-.4c-.18-.04-.64-.2-1.01-.32l-1.15-.38c-1.54-.52-3.09-1.03-4.62-1.55l-2.31-.77-2.22-.7c-1.49-.47-2.98-.94-4.47-1.41l-1.13-.35-.07-.02s.02.04.02.05l.07.13.14.26.29.52,1.15,2.11c.77,1.42,1.54,2.83,2.32,4.21l1.18,2.09.59,1.05.67,1.03,2.67,4.07,1.9,2.52c1.33,1.64,2.69,3.26,4.19,4.77-1.54-1.61-2.78-3.15-3.9-4.49-.53-.7-1.02-1.35-1.48-1.97-.23-.31-.45-.6-.67-.89l-.08-.11-.11-.17-.23-.34c-.15-.23-.29-.45-.44-.67-1.12-1.76-2.18-3.22-2.88-4.52-.72-1.28-1.31-2.34-1.8-3.21-1.92-3.49-2.01-3.88-1.63-3.37.38.5,1.23,1.79,1.34,1.78.06,0-.06-.32-.49-1.18-.22-.43-.51-1-.88-1.73-.1-.18-.2-.38-.3-.58l-.04-.08s-.04-.06,0-.04l.18.06c.12.04.25.08.37.13.5.17,1.06.35,1.67.55-.42-.13-.83-.25-1.24-.37l-.61-.18-.15-.05-.08-.02s-.05-.02-.02.02l.17.3c.45.79.89,1.56,1.32,2.32.85,1.52,1.67,2.91,2.45,4.21.78,1.31,1.5,2.56,2.31,3.71.39.58.77,1.14,1.14,1.69.36.52.77,1.17,1.02,1.47,1.12,1.49,2.13,2.84,3.14,4,.96,1.21,1.91,2.23,2.76,3.18,3.47,3.76,5.93,5.97,8.57,8.21.68.54,1.36,1.09,2.08,1.67.75.54,1.53,1.1,2.38,1.7.85.59,1.81,1.16,2.84,1.81,1.05.62,2.21,1.26,3.5,1.94,5.2,2.58,12.81,5.76,24.94,7.21-.82-.11-1.82-.24-2.92-.38-1.09-.2-2.29-.41-3.5-.63-1.21-.28-2.44-.53-3.61-.84-1.17-.33-2.29-.61-3.26-.93-1.95-.63-3.37-1.15-3.68-1.35-.31-.2.45.08,2.94.75,4.43,1.39,9.69,2.53,14.57,3.16,4.88.64,9.34.85,12.17.94,4.02-.03,6.93-.26,9.01-.44,2.07-.21,3.3-.34,3.91-.45,1.23-.21.05-.1-1.71-.02-.88.04-1.9.09-2.83.14-.93.02-1.78.03-2.3.03-1.04-.01-.8-.1,2.57-.4,5.42-.16,9.3-.78,13.49-1.68,4.19-.92,8.71-2.1,15.36-4.01l.22.44c8.7-2.37,13.48-4.19,16.36-5.32,2.87-1.14,3.82-1.67,4.69-2.12.85-.48,1.6-.9,4.01-1.96,2.4-1.09,6.47-2.78,13.78-6.22-3.99,2.19-8.05,4.29-12.16,6.28,5.16-2.25,10.24-4.67,15.24-7.25l-2.88,2.04c8.16-4.24,13.38-7.25,18.53-10.27,5.14-3.04,10.23-6.08,17.69-11.13-1.83,1.04-1.45.55.98-1.38,1.23-.95,2.95-2.28,5.15-3.99,1.1-.85,2.32-1.8,3.65-2.84,1.24-.99,2.6-2.07,4.06-3.23,1.52-1.13,1.83-1.32,1.96-1.36.11-.02-.07.19-.08.25,0,.03.02.03.13-.05.06-.04.13-.1.24-.18.05-.04.11-.09.18-.14.03-.03.07-.06.11-.09.02.02.03.09.04.13.11.4.26.96.47,1.74.11.4.24.86.38,1.38.04.13.08.27.12.42-.03.12-.2.21-.29.33-.29.27-.6.56-.92.87l.33-.34.17-.19.3-.36c.08-.12.23-.22.24-.35-.06-.15-.12-.3-.18-.46-.24-.62-.44-1.09-.62-1.63-.04-.13-.09-.27-.14-.4l-.07-.21-.03-.11-.02-.05-.05.04c-.27.23-.55.46-.84.7-.34.26-.81.62-1.27.95-.83.6-1.7,1.24-2.62,1.91-.69.75-3.81,3.3-4.56,4.04,1.21-.83,2.47-1.75,3.77-2.72.66-.48,1.31-.99,1.98-1.5.57-.44,1.15-.89,1.73-1.34.29-.23.58-.46.88-.7l.58-.48.14-.12.04-.03v.04s.03.07.03.07l.08.3.17.59c.06.22.13.43.19.65l.05.17c.01.06.06.12,0,.16l-.26.25c-1.02.97-2,1.9-2.93,2.78-2.13,2.03-4.01,3.81-5.55,5.09.59-.5,1.21-1.02,1.83-1.55.6-.55,1.2-1.09,1.77-1.61,1.14-1.04,2.18-1.98,2.9-2.6l-2.88,2.81-1.44,1.4-1.5,1.34-5.99,5.37c-2.02,1.76-4.13,3.43-6.19,5.14-1.04.85-2.06,1.72-3.12,2.55l-3.22,2.42c-4.22,2.82-1.04.35,2.1-2.09-2.63,1.93-4.82,3.6-7.33,5.49-2.6,1.76-5.47,3.8-9.51,6.37.97-.78,1.24-1.24,2.7-2.4.73-.58,1.75-1.35,3.28-2.44.77-.54,1.67-1.17,2.72-1.9,1.05-.74,2.21-1.65,3.57-2.65l-3.07,2.28-3.16,2.14c-2.12,1.41-4.2,2.89-6.35,4.25l-6.52,3.98-1.63.99-1.67.92-3.35,1.83c-1.8,1-14.3,6.37-10.76,4.58-7.74,3.31-17.28,7.38-27.93,10.2-10.6,2.91-22.25,4.78-33.37,4.67-.58.04-1.45.08-2.76.12-.34,0-.7.02-1.1.03-.73.03-1.47-.02-2.22-.05-1.46-.07-3.13-.14-5.04-.22-2.13-.12-4.25-.24-6.36-.36l-1.59-.09-.79-.05-.4-.02s-.18-.03-.15.01l.14.14c.73.75,1.45,1.5,2.17,2.25,1.45,1.51,2.9,3.01,4.34,4.51,1.45,1.35,2.9,2.7,4.35,4.05l2.16,2,1.62,1.21c1.09.79,2.14,1.64,3.27,2.39,1.16.71,2.32,1.43,3.48,2.14l.88.54.92.46c.62.31,1.24.61,1.86.92,4.98,2.4,10.43,4.29,16.33,5.11,5.88.87,12.13.89,18.62-.04,4.96-.31,9.85-1.27,14.67-2.43,4.88-1.57,6.04-2.18,5.64-2.13-.2.02-.79.2-1.53.41-.75.19-1.66.42-2.47.62-1.61.4-2.81.66-1.6.15.6-.25,1.81-.69,3.86-1.41,2-.83,4.89-1.86,8.7-3.64,1.37-.59,2.56-1.19,3.63-1.73,1.07-.53,2.02-1,2.87-1.42,1.66-.88,2.9-1.53,3.81-2.02,1.85-.94,2.42-1.21,2.59-1.19.35.03-.93,1.09,2.71-.96,4.98-3.21,11.57-7.92,18.75-13.82,3.62-2.92,7.34-6.2,11.18-9.62,3.79-3.49,7.71-7.11,11.56-10.93-4.89,5.26-9.06,9.07-14.06,13.54ZM270.95,802.89c-2.32.77-5.88,1.7-9.36,2.29-1.74.25-3.46.42-4.97.54-1.51.03-2.81.02-3.71-.03,1.41-.17,2.73-.27,4.05-.38,1.31-.18,2.63-.32,4.03-.46,1.39-.21,2.87-.44,4.52-.69.81-.18,1.67-.36,2.57-.56.9-.21,1.87-.39,2.86-.71ZM400.45,755.19c-1.19,3.32-3.34,8.33-5.85,13.95,1.66-4.14,3.6-8.81,5.85-13.95ZM214.23,583.36c.2.03.34.05.5.08,10.36,2.31,6.69,1.48-.5-.08ZM192.81,578.14c-2.16-.49-2.03-.39-1.14-.09.76.13,2.34.52,4.41,1.02,2.08.5,4.65,1.12,7.39,1.78-1.49-.51-4.25-1.19-10.66-2.72ZM273.9,694.13l-4.08,1.38c4.53-1.74,6.16-2.38,6.35-2.43.19-.05-1.03.54-2.27,1.06Z"/>
        <path class="cls-6" d="M374.4,781.96c-1.34-.08-1.71-.17-2.03-.26-1.86.08-1.9.17,2.03.26Z"/>
        <path class="cls-6" d="M197.21,749.16h.73c.4-.03.61-.06.73-.09l-1.46.09Z"/>
        <path class="cls-6" d="M394.35,662.34c1.65-4.2,2.62-6.54,3.3-8.07-.02-.27-.84,1.62-3.3,8.07Z"/>
        <path class="cls-6" d="M84.9,533.76c3.98,2.6,7.97,5.19,12.1,7.53-1.48-.88-2.72-1.62-3.79-2.27-1.06-.66-1.94-1.27-2.73-1.8-1.58-1.08-2.81-1.91-4.24-2.89.21.25,2.38,1.91-1.33-.57Z"/>
        <path class="cls-6" d="M70.64,556.64c.34.39.68.79,1.04,1.19.36.4.73.8,1.1,1.2.74.8,1.46,1.61,2.17,2.32-.08-.18-.15-.38-.22-.56-2.99-3.19-5.38-6.03-6.35-7.17-.48-.57-.62-.7-.3-.24.3.48,1.11,1.51,2.56,3.26Z"/>
        <path class="cls-6" d="M75.26,524.65c-.16-.25-.72-.78-1.6-1.51-.86-.76-2.01-1.76-3.36-2.95-1.36-1.18-2.98-2.48-4.58-4.06-.82-.77-1.67-1.57-2.54-2.38-.88-.81-1.77-1.65-2.61-2.57.41.43.79.85,1.21,1.27-1.24-.83.04.59,2.67,3.07.66.62,1.39,1.31,2.18,2.05.79.75,1.71,1.46,2.63,2.25,1.88,1.54,3.86,3.29,6,4.83Z"/>
        <path class="cls-6" d="M58.98,509.51c-1.04-1.12-2.15-2.21-3.14-3.38-.82-.99-1.64-1.98-2.44-2.95-.29-.17.1.32.86,1.2.56.65,1.24,1.44,2.01,2.33.84.87,1.76,1.83,2.71,2.81Z"/>
        <path class="cls-6" d="M165.83,570.73c-4.43-1.55-2.96-.42-5.44-1.39-2.57-.59,4.91,1.76,10.02,3.1,5.11,1.32,7.75,1.96-4.57-1.7Z"/>
        <path class="cls-6" d="M69.96,518.5l2.36,2.68c1.46,1.13,3.03,2.13,4.56,3.16-1.17-.96-2.39-1.84-3.51-2.86l-3.4-2.99Z"/>
        <path class="cls-6" d="M136.6,558.03c-2.44-.98-4.84-2.05-7.23-3.13-2.4-1.06-4.8-2.13-7.16-3.29.18.18-1.65-.63-3.89-1.64,2.19,1.04,4.44,2.1,6.57,3.11,2.16.95,4.2,1.85,5.95,2.62,3.49,1.57,5.91,2.44,5.76,2.32Z"/>
        <path class="cls-6" d="M118.32,549.97c-2.29-1.07-4.47-2.24-6.43-3.21-.98-.49-1.9-.94-2.73-1.35-.82-.43-1.56-.81-2.18-1.14.6.33,1.38.75,2.26,1.23.89.45,1.9.95,2.93,1.47,2.09,1.02,4.29,2.19,6.15,3Z"/>
        <path class="cls-6" d="M87.07,531.51c1.26.9,2.56,1.75,3.84,2.63,3.07,2.08,6.27,3.95,9.44,5.86-2.24-1.38-4.51-2.7-6.72-4.13l-6.56-4.36Z"/>
        <path class="cls-6" d="M301.53,593.29l1.07.06h1.07s2.15-.03,2.15-.03l4.3-.04,8.59-.07c1.75-.17-2.93-.28-9.33-.21-2.06.05-4.68.11-6.46.16-1.78-.02-2.72-.05-1.4.12Z"/>
        <path class="cls-6" d="M250.02,586.52c4.58.78,4.87.91,7.44,1.44l.6-.54-8.04-.9Z"/>
        <path class="cls-6" d="M299.74,591.66c.21,0,.76,0,1.51.03.38.01.8.03,1.26.04.46,0,.96-.02,1.48-.03,2.08-.05,4.46-.12,6.11-.16,3.3-.1,3.66-.17-7.22-.15-.87.06-5.56-.19-8.09-.27-2.54-.14-2.89-.03,4.94.53Z"/>
        <polygon class="cls-6" points="405.29 638.06 403.76 642.15 404.94 641.91 405.29 638.06"/>
        <path class="cls-6" d="M484.98,638.72c-5.52,19.59-.65,4.83-5.72,22.52-1.01,4.68,4.15-14.45,3.07-9.67,2.95-11.93,4.76-18.12,2.65-12.85Z"/>
        <path class="cls-6" d="M482.33,651.57c-.46,1.91-.96,3.94-1.48,6.1.86-3.45,1.25-5.08,1.48-6.1Z"/>
        <path class="cls-6" d="M84.2,606.83c-2.29-3.55-4.28-7.29-5.89-11.19.51,1.26,1,2.54,1.6,3.76.57,1.24,1.14,2.48,1.81,3.68l1.19,1.91,1.29,1.84Z"/>
        <path class="cls-6" d="M73.48,584.94c-.05-1.03-.14-2.04-.12-3.07-.36-1.23-.77-2.44-1.09-3.69l-.94-3.75c.47,2.87,1.59,8.37,2.15,10.51Z"/>
        <path class="cls-6" d="M304.2,786.15l.69-.77c-.84.61-1.9,1.38-3.38,2.45-1.45,1.11-3.4,2.46-6,4.24l4.41-2.87c1.42-1.02,2.87-2.01,4.28-3.05Z"/>
        <path class="cls-6" d="M294.54,754.84l-1.17.95-1.21.89c1.65-.93,3.18-2.03,4.77-3.05l-2.39,1.21Z"/>
        <path class="cls-6" d="M270.6,764.93c5.62-2.76,11.86-6.61,17.06-10.05-2.83,1.86-5.38,3.5-7.68,4.77-2.26,1.33-4.24,2.31-5.79,3.11-1.54.79-2.66,1.36-3.3,1.69-.63.35-.75.51-.29.48Z"/>
      </g>
    </g>
  </g>
  <text class="cls-2" transform="translate(398.62 855.95)"><tspan class="cls-3" x="0" y="0">W</tspan><tspan class="cls-5" x="80.2" y="0">IN</tspan><tspan class="cls-4" x="170.36" y="0">G</tspan><tspan class="cls-5" x="234.35" y="0">S</tspan></text>
</svg>